<svg width="129" height="152" viewBox="0 0 129 152" fill="none" xmlns="http://www.w3.org/2000/svg">
<path d="M128.055 96.1218L110.286 93.7208L122.041 5.59698L87.7138 0.964851L4.52788 77.5593L0.15625 110.324L71.8581 119.996L68.2792 146.792L102.573 151.424L106.152 124.628L123.955 127.04L128.055 96.1218ZM38.1081 84.0035L82.051 43.9678L76.0259 89.0887L38.1081 84.0035Z" fill="#0066FF"/>
<path d="M92.1645 150.586H92.0626C91.9156 150.559 91.7855 150.474 91.7007 150.351C91.6158 150.228 91.5831 150.076 91.6095 149.929L118.021 5.03071C118.051 4.8852 118.136 4.75692 118.258 4.67255C118.381 4.58818 118.531 4.55421 118.678 4.5777C118.824 4.60523 118.955 4.68973 119.039 4.81279C119.124 4.93584 119.157 5.08746 119.131 5.23457L92.7195 150.122C92.6957 150.252 92.6272 150.369 92.5258 150.454C92.4245 150.539 92.2966 150.586 92.1645 150.586Z" fill="#263238"/>
<path d="M115.592 7.4578C115.61 6.9452 115.208 6.51542 114.696 6.49788C114.183 6.48034 113.753 6.88167 113.736 7.39428C113.718 7.90688 114.12 8.33665 114.632 8.3542C115.145 8.37174 115.575 7.9704 115.592 7.4578Z" fill="#263238"/>
<path d="M111.816 27.0507C111.833 26.538 111.432 26.1083 110.919 26.0907C110.407 26.0732 109.977 26.4745 109.959 26.9871C109.942 27.4997 110.343 27.9295 110.856 27.947C111.368 27.9646 111.798 27.5633 111.816 27.0507Z" fill="#263238"/>
<path d="M108.039 46.6435C108.057 46.1309 107.656 45.7011 107.143 45.6836C106.63 45.666 106.201 46.0673 106.183 46.5799C106.166 47.0925 106.567 47.5223 107.08 47.5399C107.592 47.5574 108.022 47.1561 108.039 46.6435Z" fill="#263238"/>
<path d="M100.617 67.0432C100.634 66.5306 100.233 66.1008 99.7202 66.0833C99.2076 66.0657 98.7778 66.4671 98.7603 66.9797C98.7427 67.4923 99.1441 67.922 99.6567 67.9396C100.169 67.9571 100.599 67.5558 100.617 67.0432Z" fill="#263238"/>
<path d="M100.536 85.8536C100.553 85.341 100.152 84.9112 99.6394 84.8936C99.1268 84.8759 98.697 85.2771 98.6794 85.7897C98.6618 86.3023 99.063 86.7322 99.5756 86.7498C100.088 86.7675 100.518 86.3662 100.536 85.8536Z" fill="#263238"/>
<path d="M96.7583 105.45C96.776 104.937 96.3747 104.507 95.8621 104.49C95.3495 104.472 94.9197 104.873 94.902 105.386C94.8844 105.899 95.2857 106.328 95.7983 106.346C96.3109 106.364 96.7407 105.962 96.7583 105.45Z" fill="#263238"/>
<path d="M92.982 125.046C92.9996 124.533 92.5984 124.104 92.0858 124.086C91.5732 124.068 91.1433 124.47 91.1257 124.982C91.108 125.495 91.5093 125.925 92.0219 125.942C92.5345 125.96 92.9643 125.559 92.982 125.046Z" fill="#263238"/>
<path d="M89.2163 144.642C89.234 144.13 88.8327 143.7 88.3201 143.682C87.8075 143.665 87.3777 144.066 87.3601 144.578C87.3424 145.091 87.7437 145.521 88.2563 145.539C88.7689 145.556 89.1987 145.155 89.2163 144.642Z" fill="#263238"/>
<path d="M99.7077 67.5815C99.5576 67.5965 99.4076 67.5513 99.2907 67.4557C99.1739 67.3601 99.0999 67.2221 99.0849 67.0719C99.0698 66.9217 99.1151 66.7717 99.2107 66.6549C99.3062 66.5381 99.4443 66.464 99.5945 66.449L102.437 65.8827C102.512 65.8671 102.588 65.8663 102.663 65.8803C102.738 65.8943 102.809 65.9229 102.872 65.9645C102.936 66.006 102.991 66.0597 103.034 66.1224C103.077 66.1851 103.107 66.2557 103.122 66.3301C103.138 66.4044 103.139 66.4811 103.125 66.5558C103.111 66.6305 103.082 66.7017 103.041 66.7653C102.999 66.8289 102.945 66.8837 102.883 66.9266C102.82 66.9695 102.749 66.9996 102.675 67.0152L99.8663 67.6155L99.7077 67.5815Z" fill="#263238"/>
<path d="M109.097 57.1507C107.757 60.6144 106.622 64.1541 105.699 67.7514C104.85 71.7493 104.793 80.6851 104.793 80.6851" fill="#263238"/>
<path d="M104.804 81.2514C104.653 81.2514 104.509 81.1918 104.403 81.0856C104.297 80.9794 104.237 80.8353 104.237 80.6852C104.237 80.3227 104.294 71.6247 105.155 67.6268C106.072 63.9984 107.207 60.4282 108.552 56.9356C108.614 56.8065 108.722 56.7053 108.854 56.6525C108.987 56.5996 109.135 56.5989 109.268 56.6505C109.401 56.7021 109.51 56.8022 109.573 56.9306C109.635 57.0591 109.647 57.2065 109.606 57.3433C108.269 60.7811 107.134 64.2942 106.208 67.8647C105.381 71.7606 105.313 80.6059 105.313 80.6852C105.314 80.826 105.262 80.9621 105.168 81.0668C105.074 81.1715 104.944 81.2374 104.804 81.2514Z" fill="#263238"/>
</svg>
