<svg width="477" height="422" viewBox="0 0 477 422" fill="none" xmlns="http://www.w3.org/2000/svg">
<g clip-path="url(#clip0_4834_682)">
<path d="M466.326 389.077H441.772V389.36H466.326V389.077Z" fill="#EBEBEB"/>
<path d="M347.136 383.199H308.505V383.482H347.136V383.199Z" fill="#EBEBEB"/>
<path d="M456.371 378.567H405.938V378.85H456.371V378.567Z" fill="#EBEBEB"/>
<path d="M152.734 384.275H140.117V384.558H152.734V384.275Z" fill="#EBEBEB"/>
<path d="M130.037 384.275H86.5586V384.558H130.037V384.275Z" fill="#EBEBEB"/>
<path d="M63.2506 379.495H31.8789V379.778H63.2506V379.495Z" fill="#EBEBEB"/>
<path d="M225.217 320.342H6.52156C5.67232 320.342 4.83139 320.175 4.04679 319.85C3.2622 319.525 2.54929 319.049 1.94879 318.448C1.34829 317.848 0.871939 317.135 0.546949 316.35C0.221958 315.565 0.0546875 314.725 0.0546875 313.875L0.0546875 6.46687C0.0546875 4.75175 0.736016 3.10688 1.94879 1.8941C3.16156 0.681329 4.80644 0 6.52156 0L225.217 0C226.066 0 226.907 0.16727 227.692 0.492261C228.477 0.817252 229.19 1.2936 229.79 1.8941C230.391 2.49461 230.867 3.20751 231.192 3.99211C231.517 4.7767 231.684 5.61763 231.684 6.46687V313.875C231.684 314.725 231.517 315.565 231.192 316.35C230.867 317.135 230.391 317.848 229.79 318.448C229.19 319.049 228.477 319.525 227.692 319.85C226.907 320.175 226.066 320.342 225.217 320.342ZM6.52156 0.283138C4.88153 0.283138 3.30867 0.934636 2.149 2.09431C0.989324 3.25399 0.337825 4.82684 0.337825 6.46687V313.875C0.337825 315.515 0.989324 317.088 2.149 318.248C3.30867 319.408 4.88153 320.059 6.52156 320.059H225.217C226.857 320.059 228.43 319.408 229.59 318.248C230.749 317.088 231.401 315.515 231.401 313.875V6.46687C231.401 4.82684 230.749 3.25399 229.59 2.09431C228.43 0.934636 226.857 0.283138 225.217 0.283138H6.52156Z" fill="#EBEBEB"/>
<path d="M470.177 320.342H251.482C249.766 320.342 248.122 319.661 246.909 318.448C245.696 317.235 245.015 315.59 245.015 313.875V6.46687C245.015 4.75175 245.696 3.10688 246.909 1.8941C248.122 0.681329 249.766 0 251.482 0L470.177 0C471.892 0 473.537 0.681329 474.75 1.8941C475.963 3.10688 476.644 4.75175 476.644 6.46687V313.875C476.644 314.725 476.477 315.565 476.152 316.35C475.827 317.135 475.35 317.848 474.75 318.448C474.149 319.049 473.437 319.525 472.652 319.85C471.867 320.175 471.026 320.342 470.177 320.342ZM251.482 0.283138C249.841 0.283138 248.269 0.934636 247.109 2.09431C245.949 3.25399 245.298 4.82684 245.298 6.46687V313.875C245.298 315.515 245.949 317.088 247.109 318.248C248.269 319.408 249.841 320.059 251.482 320.059H470.177C471.817 320.059 473.39 319.408 474.55 318.248C475.709 317.088 476.361 315.515 476.361 313.875V6.46687C476.361 4.82684 475.709 3.25399 474.55 2.09431C473.39 0.934636 471.817 0.283138 470.177 0.283138H251.482Z" fill="#EBEBEB"/>
<path d="M201.501 165.273L202.011 150.392L192.871 147.402C192.484 142.377 191.67 137.395 190.436 132.509L198.183 126.846L192.917 112.87L183.335 113.64C181.067 109.135 178.415 104.835 175.407 100.786L180.368 92.5068L170.175 81.623L161.613 86.006C157.754 82.6773 153.629 79.6698 149.279 77.0135L150.684 67.5227L137.093 61.3503L130.864 68.6439C126.058 67.1092 121.134 65.9729 116.141 65.2463L113.876 55.9254L98.9488 55.4157L95.9249 64.5554C90.8832 64.9545 85.883 65.769 80.9752 66.9904L75.2218 59.2891L61.2122 64.4535L61.9823 74.0349C57.4828 76.3428 53.1832 79.0211 49.1279 82.042L40.8829 77.0814L29.9538 87.2744L34.3367 95.8818C31.044 99.7121 28.0884 103.82 25.5028 108.159L16.0007 106.732L9.79434 120.322L17.1333 126.551C15.5843 131.354 14.4477 136.279 13.7356 141.274L4.38074 143.63L3.87109 158.512L13.0448 161.502C13.4256 166.542 14.2403 171.54 15.4797 176.44L7.73309 182.103L12.9995 196.079L22.5808 195.309C24.8489 199.813 27.5014 204.114 30.5087 208.163L25.5481 216.442L35.7411 227.326L44.3032 222.943C48.142 226.238 52.2485 229.208 56.58 231.822L55.153 241.324L68.7436 247.496L75.0067 240.203C79.8128 241.738 84.7372 242.874 89.7298 243.601L91.9949 252.921L106.922 253.431L109.867 244.291C114.904 243.892 119.901 243.077 124.805 241.856L130.468 249.558L144.443 244.337L143.707 234.755C148.202 232.435 152.501 229.753 156.562 226.737L164.807 231.697L175.736 221.504L171.353 212.897C174.646 209.067 177.601 204.959 180.187 200.62L189.689 202.047L195.895 188.457L188.556 182.228C190.11 177.426 191.246 172.501 191.954 167.504L201.501 165.273ZM100.931 213.486C89.2541 213.083 77.9593 209.226 68.4746 202.403C58.99 195.581 51.7414 186.099 47.6455 175.156C43.5497 164.214 42.7905 152.303 45.464 140.93C48.1375 129.556 54.1236 119.231 62.6653 111.259C71.2071 103.288 81.9208 98.028 93.4517 96.1454C104.983 94.2627 116.813 95.8417 127.446 100.683C138.08 105.523 147.039 113.409 153.191 123.341C159.344 133.274 162.412 144.808 162.009 156.485C161.743 164.238 159.952 171.864 156.738 178.925C153.524 185.986 148.951 192.345 143.279 197.639C137.607 202.932 130.948 207.056 123.681 209.775C116.415 212.494 108.684 213.755 100.931 213.486Z" fill="#EBEBEB"/>
<path d="M456.19 116.053L459.938 112.553L458.444 109.597C459.579 108.264 460.599 106.835 461.49 105.327L464.774 105.826L466.904 101.137L464.401 99.0076C464.923 97.352 465.302 95.6545 465.533 93.9338L468.761 93.1297L468.931 87.9879L465.771 86.9686C465.635 85.2314 465.359 83.5081 464.944 81.8155L467.606 79.8335L465.794 75.0202L462.498 75.2807C461.704 73.7277 460.784 72.2428 459.746 70.8411L461.456 68.0097L457.945 64.2496L455.023 65.688C453.703 64.5745 452.294 63.5707 450.81 62.6867L451.286 59.4023L446.608 57.2618L444.457 59.7874C442.796 59.2698 441.095 58.891 439.371 58.6548L438.567 55.4384L433.425 55.2572L432.395 58.4283C430.656 58.5586 428.932 58.839 427.242 59.2664L425.271 56.6049L420.446 58.4057L420.718 61.7127C419.163 62.5018 417.677 63.4225 416.279 64.4648L413.436 62.7094L409.687 66.209L411.171 69.1762C410.036 70.4981 409.016 71.9152 408.124 73.412L404.84 72.9137L402.711 77.6024L405.236 79.7543C404.695 81.4082 404.297 83.1058 404.047 84.8281L400.819 85.6322L400.649 90.774L403.809 91.7933C403.942 93.5309 404.218 95.2546 404.636 96.9464L401.975 98.917L403.787 103.73L407.094 103.481C407.887 105.034 408.808 106.519 409.846 107.921L408.136 110.752L411.647 114.512L414.568 113.029C415.894 114.159 417.311 115.178 418.804 116.075L418.317 119.348L422.995 121.489L425.147 118.975C426.808 119.489 428.509 119.867 430.232 120.107L431.036 123.324L436.178 123.505L437.208 120.334C438.947 120.203 440.671 119.923 442.361 119.496L444.332 122.157L449.157 120.356L448.885 117.049C450.441 116.261 451.926 115.341 453.324 114.297L456.19 116.053ZM429.439 94.3868C428.449 93.3282 427.795 91.9996 427.56 90.5692C427.325 89.1388 427.519 87.6708 428.119 86.351C428.718 85.0312 429.696 83.9188 430.927 83.1546C432.159 82.3904 433.59 82.0088 435.039 82.0579C436.487 82.107 437.889 82.5848 439.066 83.4307C440.244 84.2766 441.143 85.4526 441.652 86.81C442.161 88.1674 442.255 89.6452 441.924 91.0564C441.593 92.4676 440.85 93.7488 439.79 94.7379C438.371 96.0631 436.483 96.7705 434.542 96.7047C432.601 96.6389 430.766 95.8052 429.439 94.3868Z" fill="#EBEBEB"/>
<path d="M319.185 268.845L307.474 260.759C306.322 256.543 304.743 252.456 302.763 248.561L305.764 236.783L288.776 218.594L276.816 220.78C273.068 218.517 269.098 216.642 264.969 215.185L257.698 202.942L232.782 202.092L224.696 213.803C220.47 214.976 216.376 216.577 212.476 218.582L200.708 215.581L182.52 232.569L184.66 244.473C182.41 248.23 180.558 252.212 179.133 256.353L166.89 263.624L166.041 288.54L177.763 296.638C178.894 300.877 180.47 304.984 182.463 308.892L179.473 320.637L196.461 338.825L208.342 336.651C212.126 338.898 216.13 340.753 220.29 342.189L227.55 354.409L252.466 355.259L260.541 343.537C264.786 342.387 268.904 340.809 272.829 338.825L284.551 341.815L302.74 324.827L300.554 312.89C302.804 309.129 304.657 305.143 306.081 300.998L318.301 293.727L319.185 268.845ZM241.661 306.661C236.13 306.47 230.78 304.642 226.287 301.411C221.794 298.179 218.361 293.687 216.42 288.504C214.48 283.321 214.12 277.678 215.386 272.291C216.652 266.903 219.487 262.011 223.533 258.235C227.579 254.458 232.653 251.966 238.115 251.073C243.578 250.181 249.182 250.928 254.219 253.22C259.257 255.512 263.502 259.246 266.417 263.951C269.332 268.655 270.787 274.118 270.598 279.65C270.341 287.068 267.149 294.081 261.722 299.146C256.296 304.212 249.08 306.915 241.661 306.661Z" fill="#EBEBEB"/>
<path d="M345.868 198.197H345.789L326.23 197.528C325.833 197.518 325.445 197.409 325.101 197.211C324.757 197.014 324.468 196.733 324.259 196.396L318.981 187.505C316.13 186.465 313.371 185.184 310.736 183.677L302.231 185.229C301.837 185.301 301.431 185.272 301.05 185.146C300.67 185.019 300.328 184.798 300.056 184.504L286.59 170.132C286.31 169.834 286.111 169.47 286.012 169.073C285.913 168.677 285.917 168.261 286.024 167.867L288.165 159.475C286.841 156.754 285.757 153.923 284.925 151.014L276.397 145.125C276.067 144.897 275.8 144.59 275.62 144.232C275.44 143.874 275.353 143.476 275.367 143.075L276.035 123.459C276.045 123.063 276.154 122.675 276.352 122.331C276.55 121.987 276.83 121.697 277.167 121.489L286.081 116.2C287.145 113.37 288.452 110.638 289.988 108.034L288.425 99.506C288.354 99.1118 288.383 98.7061 288.51 98.3261C288.636 97.9462 288.856 97.6041 289.15 97.3315L303.443 83.922C303.74 83.6418 304.105 83.4426 304.501 83.3435C304.898 83.2443 305.313 83.2485 305.708 83.3558L314.123 85.5076C316.838 84.1863 319.66 83.0989 322.56 82.2572L328.449 73.7291C328.668 73.3903 328.974 73.1162 329.334 72.935C329.695 72.7538 330.097 72.6722 330.499 72.6985L350.115 73.3667C350.512 73.377 350.9 73.4859 351.244 73.6837C351.588 73.8814 351.877 74.1617 352.086 74.4992L357.375 83.4124C360.207 84.4503 362.947 85.7271 365.563 87.2291L374.114 85.6662C374.508 85.5951 374.914 85.6242 375.294 85.7509C375.674 85.8775 376.016 86.0976 376.288 86.391L389.652 100.797C389.933 101.095 390.132 101.459 390.231 101.856C390.33 102.252 390.326 102.668 390.219 103.062L388.067 111.488C389.388 114.203 390.476 117.026 391.317 119.926L399.845 125.713C400.175 125.941 400.443 126.248 400.623 126.606C400.803 126.965 400.89 127.362 400.876 127.763L400.208 147.379C400.198 147.776 400.089 148.163 399.891 148.507C399.693 148.852 399.413 149.141 399.075 149.35L390.162 154.639C389.101 157.488 387.793 160.239 386.255 162.861L387.818 171.4C387.889 171.794 387.86 172.2 387.733 172.58C387.606 172.96 387.386 173.302 387.093 173.575L372.755 186.962C372.458 187.243 372.093 187.443 371.697 187.542C371.3 187.641 370.884 187.636 370.49 187.528L362.109 185.387C359.378 186.709 356.54 187.796 353.626 188.638L347.748 197.155C347.538 197.463 347.258 197.718 346.932 197.899C346.605 198.08 346.241 198.182 345.868 198.197ZM327.645 192.783L344.634 193.361L350.296 185.206C350.618 184.739 351.096 184.402 351.644 184.255C354.833 183.389 357.925 182.201 360.874 180.71C361.387 180.456 361.974 180.396 362.528 180.54L370.456 182.567L382.914 170.959L381.43 162.838C381.326 162.265 381.434 161.672 381.736 161.173C383.415 158.367 384.8 155.396 385.87 152.306C386.051 151.749 386.43 151.278 386.934 150.98L395.451 145.918L396.029 128.93L387.874 123.267C387.449 122.972 387.131 122.546 386.968 122.055V121.863C386.105 118.712 384.925 115.658 383.446 112.745C383.184 112.227 383.12 111.631 383.265 111.069L385.303 103.051L373.65 90.6041L365.506 92.0991C364.938 92.2042 364.35 92.0996 363.853 91.8046C361.038 90.1215 358.059 88.7289 354.962 87.6481C354.788 87.5867 354.621 87.5069 354.464 87.4103C354.134 87.2077 353.858 86.9278 353.66 86.5949L348.597 78.146L331.609 77.5684L325.946 85.7228C325.612 86.2052 325.113 86.5479 324.542 86.6855C321.392 87.5491 318.337 88.7292 315.425 90.2077C314.907 90.4697 314.311 90.5342 313.749 90.3889L305.742 88.339L293.284 99.9477L294.767 108.068C294.859 108.577 294.784 109.101 294.552 109.563L294.439 109.756C292.758 112.572 291.372 115.556 290.305 118.657C290.118 119.19 289.749 119.639 289.263 119.926L280.735 124.988L280.157 141.977L288.323 147.639C288.79 147.961 289.127 148.439 289.274 148.987C290.124 152.167 291.305 155.249 292.797 158.183C292.88 158.345 292.945 158.516 292.989 158.693C293.08 159.065 293.08 159.454 292.989 159.826L290.951 167.81L302.559 180.268L310.646 178.785C311.211 178.683 311.793 178.788 312.288 179.079C315.12 180.757 318.113 182.146 321.224 183.224C321.779 183.402 322.25 183.776 322.549 184.277L327.645 192.783ZM338.11 171.31H336.853C327.426 171.144 318.446 167.262 311.868 160.507C305.29 153.753 301.645 144.674 301.728 135.246C301.811 125.818 305.614 116.805 312.31 110.167C319.007 103.53 328.053 99.8059 337.481 99.8059C346.91 99.8059 355.956 103.53 362.652 110.167C369.349 116.805 373.152 125.818 373.235 135.246C373.318 144.674 369.673 153.753 363.095 160.507C356.517 167.262 347.537 171.144 338.11 171.31ZM338.11 104.387C329.915 104.537 322.111 107.916 316.395 113.79C310.679 119.664 307.514 127.558 307.589 135.754C307.664 143.95 310.972 151.784 316.794 157.553C322.616 163.323 330.48 166.559 338.676 166.559C346.872 166.559 354.737 163.323 360.559 157.553C366.381 151.784 369.689 143.95 369.764 135.754C369.838 127.558 366.673 119.664 360.958 113.79C355.242 107.916 347.437 104.537 339.243 104.387H338.11Z" fill="#EBEBEB"/>
<path d="M391.045 57.0466L382.925 54.8608L380.739 46.7404L383.922 43.5579L387.274 50.5118L394.228 53.8641L391.045 57.0466Z" fill="#E0E0E0"/>
<path d="M391.555 51.6104C391.94 51.2665 392.251 50.8477 392.469 50.3795C392.687 49.9113 392.807 49.4035 392.821 48.8874C392.836 48.3712 392.745 47.8575 392.554 47.3777C392.363 46.8979 392.077 46.4621 391.712 46.097C391.346 45.7319 390.911 45.4452 390.431 45.2543C389.951 45.0635 389.437 44.9727 388.921 44.9873C388.405 45.0019 387.897 45.1218 387.429 45.3395C386.961 45.5572 386.542 45.8682 386.198 46.2534L390.241 40.1942L395.666 42.935L396.799 48.5978L391.555 51.6104Z" fill="#E0E0E0"/>
<path d="M383.276 44.1695L389.234 38.2123L397.354 40.3981L399.54 48.5185L393.583 54.4757L385.462 52.3239L383.276 44.1695ZM394.092 49.0395C394.624 48.5093 394.987 47.8333 395.134 47.097C395.281 46.3607 395.207 45.5972 394.92 44.9033C394.633 44.2093 394.147 43.616 393.523 43.1986C392.899 42.7811 392.165 42.5583 391.414 42.5583C390.663 42.5583 389.929 42.7811 389.305 43.1986C388.68 43.616 388.194 44.2093 387.907 44.9033C387.621 45.5972 387.546 46.3607 387.694 47.097C387.841 47.8333 388.203 48.5093 388.735 49.0395C389.443 49.7501 390.404 50.1524 391.407 50.1588C392.41 50.1652 393.375 49.7751 394.092 49.0734V49.0395Z" fill="#F0F0F0"/>
<path d="M58.9586 273.794L63.3189 272.628L64.4968 268.267L62.7866 266.569L60.9859 270.295L57.2598 272.095L58.9586 273.794Z" fill="#E0E0E0"/>
<path d="M58.6868 270.884C58.4769 270.7 58.3069 270.475 58.1874 270.223C58.0679 269.97 58.0015 269.696 57.9923 269.417C57.983 269.139 58.0312 268.861 58.1337 268.601C58.2362 268.342 58.3909 268.106 58.5883 267.908C58.7856 267.711 59.0214 267.556 59.2809 267.454C59.5405 267.351 59.8183 267.303 60.0973 267.312C60.3762 267.322 60.6503 267.388 60.9025 267.508C61.1547 267.627 61.3797 267.797 61.5635 268.007L59.4004 264.757L56.4897 266.229L55.8555 269.287L58.6868 270.884Z" fill="#E0E0E0"/>
<path d="M63.1261 266.908L59.9323 263.715L55.572 264.847L54.4395 269.207L57.6332 272.401L61.9936 271.269L63.1261 266.908ZM57.3275 269.547C57.0415 269.263 56.8464 268.899 56.767 268.504C56.6876 268.108 56.7275 267.698 56.8815 267.325C57.0356 266.952 57.2969 266.633 57.6323 266.408C57.9677 266.184 58.3622 266.064 58.7658 266.064C59.1694 266.064 59.5639 266.184 59.8993 266.408C60.2347 266.633 60.496 266.952 60.6501 267.325C60.8041 267.698 60.844 268.108 60.7646 268.504C60.6852 268.899 60.4901 269.263 60.2041 269.547C59.8221 269.928 59.3049 270.141 58.7658 270.141C58.2267 270.141 57.7095 269.928 57.3275 269.547Z" fill="#F0F0F0"/>
<path d="M43.2726 34.7807L46.8854 38.3935C47.34 38.8363 47.9496 39.084 48.5842 39.084C49.2188 39.084 49.8284 38.8363 50.283 38.3935C50.7258 37.9388 50.9736 37.3293 50.9736 36.6947C50.9736 36.06 50.7258 35.4505 50.283 34.9958L46.6702 31.383C46.2156 30.9402 45.606 30.6925 44.9714 30.6925C44.3368 30.6925 43.7272 30.9402 43.2726 31.383C42.8298 31.8377 42.582 32.4472 42.582 33.0818C42.582 33.7164 42.8298 34.326 43.2726 34.7807Z" fill="#F0F0F0"/>
<path d="M44.1328 35.2496C46.9231 34.2473 48.4221 31.3111 47.4811 28.6916C46.5401 26.0721 43.5153 24.7611 40.725 25.7634C37.9348 26.7658 36.4357 29.7019 37.3767 32.3214C38.3178 34.941 41.3426 36.252 44.1328 35.2496Z" fill="#E0E0E0"/>
<path d="M36.7762 31.714L37.3008 33.1742L48.066 29.307L47.5414 27.8468L36.7762 31.714Z" fill="#F0F0F0"/>
<path d="M239.918 422C361.194 422 459.508 416.26 459.508 409.179C459.508 402.099 361.194 396.359 239.918 396.359C118.641 396.359 20.3271 402.099 20.3271 409.179C20.3271 416.26 118.641 422 239.918 422Z" fill="#F5F5F5"/>
<path d="M54.9944 74.3973C53.8618 69.4141 54.3677 65.2161 56.512 61.8033C58.6563 58.3906 62.2087 56.1255 67.1693 55.008C72.2582 53.8226 76.4864 54.2945 79.8539 56.4237C83.2213 58.5529 85.4676 62.0638 86.5926 66.9564C87.3988 69.9613 87.4649 73.1168 86.7851 76.1527C86.1267 78.6746 84.7354 80.9448 82.7872 82.6762C80.4733 84.6268 77.6963 85.949 74.7234 86.5156C71.8086 87.2839 68.758 87.3845 65.7989 86.8101C63.2283 86.1872 60.9042 84.8062 59.1282 82.8461C57.015 80.4532 55.5868 77.5343 54.9944 74.3973ZM64.4399 72.2907C65.142 75.3788 66.218 77.4627 67.6676 78.5424C68.416 79.0414 69.2574 79.3839 70.1415 79.5493C71.0256 79.7147 71.934 79.6996 72.8121 79.505C73.6902 79.3103 74.5198 78.9401 75.2512 78.4165C75.9825 77.893 76.6005 77.227 77.0678 76.4585C77.8757 74.8881 77.8757 72.3927 77.0678 68.9724C76.4109 66.0957 75.3539 64.125 73.8967 63.0604C73.1568 62.5317 72.3081 62.1749 71.4126 62.0161C70.5171 61.8574 69.5975 61.9008 68.7209 62.1431C67.8482 62.3106 67.0249 62.6739 66.3128 63.2055C65.6007 63.7371 65.0184 64.4232 64.6097 65.2123C63.7943 66.8281 63.7377 69.1913 64.4399 72.3021V72.2907Z" fill="#263238"/>
<path d="M91.0998 70.6599C90.6959 69.1172 90.6223 67.5067 90.8838 65.9336C91.1453 64.3605 91.7361 62.8604 92.6175 61.5315C93.6077 60.1205 94.8667 58.919 96.3224 57.9958C97.7781 57.0726 99.4018 56.446 101.1 56.1519C105.532 55.1477 109.172 55.6724 112.018 57.7261C114.339 59.426 115.936 61.9365 116.492 64.7593C116.898 66.3017 116.976 67.9122 116.72 69.4866C116.465 71.061 115.881 72.5642 115.008 73.899C113.241 76.5869 110.365 78.3801 106.378 79.2786C103.306 80.1312 100.031 79.8663 97.1363 78.5311C95.5912 77.7735 94.2423 76.6688 93.1951 75.3033C92.1479 73.9378 91.4308 72.3486 91.0998 70.6599ZM99.594 68.7119C99.8213 70.2944 100.599 71.7461 101.791 72.8117C102.259 73.1687 102.799 73.419 103.374 73.5451C103.948 73.6712 104.544 73.6699 105.118 73.5415C105.692 73.4131 106.231 73.1606 106.697 72.8017C107.163 72.4428 107.545 71.9862 107.816 71.464C108.414 69.9476 108.47 68.2715 107.975 66.7186C107.745 65.1703 106.979 63.7517 105.812 62.7093C105.36 62.3456 104.832 62.0902 104.266 61.9626C103.701 61.8349 103.114 61.8386 102.55 61.9732C101.961 62.0954 101.408 62.3508 100.933 62.7199C100.457 63.0889 100.073 63.5618 99.8092 64.1024C99.202 65.5667 99.1258 67.1973 99.594 68.7119Z" fill="#263238"/>
<path d="M125.066 83.3671L118.123 52.7882L126.051 50.9875L126.798 54.2605C127.356 52.9663 128.16 51.7931 129.165 50.8063C130.282 49.8574 131.617 49.1999 133.05 48.8922C134.374 48.53 135.768 48.5082 137.102 48.8289C138.437 49.1497 139.669 49.8026 140.683 50.727C142.926 52.816 144.446 55.5651 145.021 58.5756C145.859 62.2601 145.618 65.2803 144.296 67.636C143.674 68.7679 142.813 69.7505 141.773 70.5153C140.732 71.2801 139.537 71.8087 138.271 72.0642C137.051 72.3586 135.785 72.4087 134.545 72.2115C133.352 72.0062 132.214 71.555 131.204 70.8864L133.605 81.4531L125.066 83.3671ZM129.165 62.0185C129.36 63.4386 130.06 64.7411 131.136 65.688C131.569 66.0176 132.071 66.2457 132.604 66.3555C133.137 66.4652 133.688 66.4539 134.217 66.3222C134.696 66.2187 135.145 66.0052 135.529 65.6987C135.912 65.3921 136.219 65.0007 136.425 64.5554C136.922 63.1477 136.942 61.6153 136.482 60.1951C136.279 58.7721 135.596 57.4613 134.545 56.4803C134.158 56.1555 133.701 55.925 133.209 55.8071C132.718 55.6892 132.206 55.687 131.714 55.8008C131.193 55.9116 130.704 56.1394 130.284 56.4671C129.864 56.7948 129.524 57.2137 129.29 57.6922C128.755 59.0775 128.711 60.6046 129.165 62.0185Z" fill="#263238"/>
<path d="M148.679 62.6867L156.913 60.0252C157.353 60.8213 158.035 61.4561 158.861 61.8373C159.716 62.1323 160.64 62.16 161.511 61.9166C162.462 61.7625 163.335 61.2963 163.991 60.5915C164.181 60.3927 164.319 60.1501 164.392 59.8853C164.465 59.6205 164.471 59.3418 164.411 59.0739C164.348 58.7632 164.193 58.4785 163.967 58.2564C163.741 58.0344 163.454 57.8852 163.142 57.8281C161.862 57.6902 160.571 57.6902 159.291 57.8281C157.139 58.0068 154.976 58.0068 152.825 57.8281C151.566 57.6429 150.387 57.1005 149.427 56.2651C148.417 55.4187 147.719 54.2585 147.445 52.9694C147.105 51.6105 147.254 50.1756 147.864 48.9149C148.533 47.6011 149.562 46.505 150.831 45.7551C152.635 44.7312 154.594 44.0082 156.63 43.6145C158.579 43.0902 160.592 42.8461 162.61 42.8897C163.873 42.9731 165.097 43.3617 166.177 44.0222C167.331 44.8015 168.311 45.812 169.054 46.9895L161.194 49.6057C160.895 48.9869 160.379 48.4994 159.744 48.2353C158.918 47.9391 158.022 47.8996 157.174 48.1221C156.424 48.229 155.729 48.5745 155.192 49.1074C155.022 49.2925 154.899 49.5158 154.834 49.7582C154.769 50.0007 154.764 50.2553 154.818 50.5004C154.878 50.7689 155.018 51.0127 155.221 51.199C155.423 51.3852 155.678 51.5051 155.95 51.5424C157.213 51.6916 158.489 51.6649 159.744 51.4631C161.928 51.1441 164.144 51.1099 166.336 51.3612C167.716 51.5585 169.008 52.1571 170.051 53.0827C170.997 53.9372 171.655 55.0653 171.931 56.3104C172.217 57.6408 172.111 59.0259 171.625 60.297C171.027 61.8091 169.984 63.1043 168.635 64.0118C166.65 65.3052 164.429 66.1943 162.1 66.628C158.061 67.5491 155.041 67.6284 153.04 66.8658C151.092 66.1027 149.524 64.6005 148.679 62.6867Z" fill="#263238"/>
<path d="M176.324 34.6674H185.622V41.8024L183.912 56.1519H178.159L176.324 41.8251V34.6674ZM176.732 58.3264H185.407V65.9937H176.732V58.3264Z" fill="#263238"/>
<path d="M102.517 132.089C102.449 132.102 102.38 132.102 102.313 132.089C97.2165 130.119 94.1699 128.182 92.5844 125.872C91.3431 126.104 90.0602 125.929 88.9262 125.373C87.5877 124.702 86.4884 123.634 85.7777 122.316C85.392 122.613 84.9377 122.808 84.4567 122.883C83.9758 122.958 83.4836 122.911 83.0256 122.746C81.6315 122.221 80.4412 121.265 79.628 120.016C79.1214 120.387 78.4974 120.56 77.8725 120.503C74.4749 120.232 69.9447 113.527 69.6162 106.381C69.6162 106.23 69.6759 106.086 69.7821 105.98C69.8883 105.874 70.0323 105.814 70.1825 105.814C70.3327 105.814 70.4767 105.874 70.5829 105.98C70.6891 106.086 70.7488 106.23 70.7488 106.381C71.0546 113.176 75.4036 119.212 77.9631 119.416C78.3424 119.454 78.7212 119.34 79.0164 119.099C78.1315 117.486 77.5758 115.713 77.3814 113.884C77.187 112.055 77.3578 110.205 77.8838 108.442C78.8578 105.044 79.7186 103.708 80.7492 103.912C82.6972 104.399 82.448 111.839 81.4061 116.698C81.2467 117.575 80.9198 118.413 80.4434 119.167C81.1117 120.286 82.1194 121.163 83.3201 121.67C83.6402 121.792 83.9886 121.819 84.3239 121.749C84.6591 121.679 84.9672 121.514 85.2114 121.274C84.3167 119.076 84.1355 116.098 85.3473 112.281C86.9329 107.264 87.6125 107.128 87.9635 107.049C88.0956 107.021 88.2327 107.029 88.3603 107.073C88.4879 107.117 88.6013 107.195 88.6884 107.298C89.7303 108.43 88.4845 116.268 87.1708 120.118C87.0169 120.582 86.8037 121.023 86.5365 121.432C87.1387 122.661 88.1301 123.656 89.3566 124.264C90.1542 124.654 91.0423 124.822 91.9275 124.751C91.8256 124.535 91.7349 124.32 91.6557 124.094C90.7609 121.659 91.1913 118.85 92.9921 115.509C94.1926 113.244 95.1666 112.258 96.0613 112.258C96.3018 112.262 96.5363 112.334 96.7371 112.466C96.9378 112.599 97.0963 112.786 97.1938 113.006C98.1792 114.829 97.4657 120.843 95.5177 123.822C95.0655 124.511 94.4301 125.06 93.6829 125.407C95.2005 127.401 98.0772 129.156 102.687 130.946C102.837 130.973 102.97 131.058 103.057 131.184C103.144 131.309 103.178 131.464 103.151 131.614C103.124 131.764 103.038 131.897 102.913 131.984C102.788 132.071 102.633 132.105 102.483 132.078L102.517 132.089ZM96.1179 113.436C96.1179 113.436 95.4724 113.436 94.0453 116.098C92.4031 119.133 91.9954 121.636 92.7656 123.754C92.8616 124.014 92.9752 124.268 93.1053 124.513C93.7145 124.252 94.2341 123.819 94.6003 123.267C96.1859 120.843 96.9447 115.86 96.3558 113.912C96.2425 113.504 96.1179 113.436 96.1179 113.436ZM87.9975 108.668C87.3811 109.956 86.8735 111.294 86.4799 112.666C85.608 115.042 85.4582 117.623 86.0495 120.084L86.1515 119.801C87.3259 116.205 87.9483 112.451 87.9975 108.668ZM80.534 105.101C80.3415 105.282 79.7978 105.995 79.0051 108.748C78.0825 111.854 78.3781 115.195 79.8318 118.091C80.0624 117.584 80.2335 117.052 80.3415 116.506C81.508 110.933 81.1682 105.905 80.534 105.101Z" fill="#263238"/>
<path d="M145.577 191.401C143.766 191.419 141.984 190.953 140.413 190.053C140.286 189.976 140.195 189.851 140.16 189.707C140.124 189.563 140.147 189.41 140.223 189.283C140.298 189.155 140.421 189.062 140.565 189.024C140.708 188.986 140.861 189.006 140.99 189.079C145.033 191.446 150.254 189.793 151.33 188.071C151.409 187.963 151.464 187.84 151.493 187.71C151.523 187.579 151.525 187.444 151.5 187.313C149.432 187.426 147.385 186.84 145.69 185.648C142.814 183.847 142.587 183.315 142.598 182.884C142.604 182.761 142.643 182.641 142.71 182.537C142.778 182.434 142.872 182.35 142.983 182.295C144.116 181.729 149.224 184.074 151.353 185.478C151.611 185.644 151.847 185.842 152.055 186.067C152.894 185.875 153.648 185.418 154.207 184.764C154.522 184.397 154.75 183.964 154.875 183.496H154.649C152.837 183.677 151.025 182.896 149.088 181.118C147.763 179.883 147.242 179.045 147.412 178.366C147.464 178.178 147.569 178.01 147.713 177.88C147.858 177.749 148.036 177.663 148.227 177.629C149.79 177.244 153.663 178.886 155.238 180.619C155.584 180.999 155.833 181.458 155.963 181.956C157.435 181.265 159.009 179.691 160.855 177.12C160.947 177.012 161.076 176.943 161.217 176.926C161.358 176.909 161.5 176.945 161.615 177.028C161.73 177.11 161.81 177.233 161.839 177.371C161.869 177.51 161.845 177.655 161.773 177.777C159.632 180.767 157.854 182.465 156.11 183.156C156.015 183.993 155.672 184.782 155.124 185.421C154.475 186.183 153.617 186.738 152.655 187.018C152.709 187.289 152.709 187.567 152.655 187.837C152.6 188.107 152.493 188.364 152.338 188.592C151.33 190.269 148.59 191.401 145.577 191.401ZM144.569 183.541C144.954 183.824 145.498 184.198 146.279 184.674C147.499 185.492 148.897 186.005 150.356 186.169C148.53 185.097 146.589 184.234 144.569 183.598V183.541ZM148.522 178.728C148.846 179.341 149.298 179.878 149.847 180.302C151.534 181.854 153.063 182.567 154.524 182.386H154.887C154.808 182.036 154.64 181.712 154.4 181.446C152.803 179.713 149.303 178.603 148.522 178.785V178.728Z" fill="#263238"/>
<path d="M160.583 189.895L142.938 193.1L126.901 105.656L92.8564 111.839L37.3613 210.371L43.3186 242.887L114.499 229.908L119.369 256.5L153.414 250.317L148.544 223.724L166.189 220.519L160.583 189.895ZM71.2812 206.124L100.728 154.514L108.882 199.329L71.2812 206.124Z" fill="#0066FF"/>
<path d="M302.696 99.6645C302.149 94.1811 300.924 88.7867 299.049 83.6049C297.128 78.6245 294.455 73.9683 291.121 69.7991C287.18 64.9423 282.285 60.9451 276.738 58.0546C270.698 54.74 262.687 52.4333 252.705 51.1347C231.987 48.4392 215.837 52.1162 204.255 62.1657C192.672 72.2152 185.046 91.4686 181.377 119.926C179.908 130.558 179.529 141.313 180.244 152.022C180.999 161.838 182.804 169.739 185.658 175.727C189.296 183.832 195.046 190.81 202.307 195.931C209.457 200.945 219.253 204.263 231.696 205.887C253.894 208.778 270.343 204.516 281.042 193.1C291.74 181.684 298.841 162.393 302.345 135.227C303.905 123.431 304.023 111.489 302.696 99.6645Z" fill="#0066FF"/>
<path d="M241.923 194.21C239.205 194.119 236.26 193.87 233.304 193.485C222.941 192.137 214.912 189.51 209.464 185.682C204.018 181.835 199.713 176.588 197.006 170.494V170.381C194.832 165.851 193.404 159.339 192.782 151.128C192.128 141.265 192.477 131.361 193.824 121.568C197.81 90.1398 206.18 77.0135 212.454 71.5772C219.793 65.2123 229.691 62.3356 242.727 62.7773C245.4 62.8679 248.231 63.1058 251.131 63.4908C259.5 64.6234 266.114 66.4355 270.803 68.995C274.855 71.0802 278.443 73.966 281.347 77.4778C283.889 80.6492 285.932 84.1895 287.406 87.9766C288.911 92.2043 289.889 96.6017 290.317 101.069C291.524 111.9 291.414 122.837 289.988 133.641C286.851 158.036 280.781 175.172 271.958 184.606C265.412 191.594 255.593 194.799 241.934 194.289L241.923 194.21Z" fill="#263238"/>
<path d="M264.086 100.038L264.234 95.7459L261.595 94.8851C261.484 93.4332 261.249 91.9934 260.893 90.5814L263.158 88.9392L261.618 84.9413L258.854 85.1678C258.207 83.8707 257.449 82.6317 256.589 81.4644L258.016 79.0747L255.037 75.8809L252.614 77.1607C251.507 76.2134 250.325 75.3574 249.08 74.6011L249.477 71.8604L245.558 70.0823L243.769 72.1888C242.383 71.7404 240.962 71.407 239.521 71.1922L238.853 68.508L234.55 68.3608L233.7 70.9996C232.249 71.115 230.809 71.3499 229.396 71.7018L227.743 69.4367L223.711 70.943L223.938 73.7064C222.643 74.358 221.404 75.1156 220.234 75.9715L217.856 74.5445L214.707 77.4778L215.976 79.9581C215.026 81.064 214.173 82.2501 213.427 83.503L210.687 83.0953L208.897 87.0139L211.015 88.8033C210.563 90.1881 210.229 91.6089 210.018 93.0504L207.323 93.7299L207.176 98.0223L209.826 98.883C209.936 100.335 210.171 101.775 210.528 103.187L208.263 104.829L209.781 108.861L212.544 108.634C213.192 109.931 213.949 111.171 214.809 112.338L213.382 114.727L216.327 117.865L218.796 116.596C219.901 117.546 221.083 118.402 222.329 119.156L221.922 121.896L225.84 123.675L227.641 121.568C229.027 122.016 230.447 122.35 231.888 122.565L232.556 125.249L236.86 125.396L237.709 122.757C239.161 122.642 240.6 122.407 242.013 122.055L243.655 124.32L247.687 122.814L247.472 120.05C248.765 119.396 250.004 118.639 251.175 117.785L253.554 119.212L256.702 116.279L255.434 113.799C256.383 112.696 257.236 111.514 257.982 110.265L260.723 110.673L262.512 106.754L260.394 104.965C260.848 103.58 261.182 102.159 261.391 100.718L264.086 100.038ZM235.093 113.935C231.738 113.812 228.495 112.698 225.773 110.734C223.05 108.769 220.971 106.042 219.797 102.897C218.624 99.7512 218.408 96.3286 219.179 93.061C219.949 89.7933 221.67 86.8271 224.124 84.5368C226.579 82.2464 229.657 80.7347 232.97 80.1925C236.283 79.6503 239.682 80.1018 242.739 81.4901C245.796 82.8785 248.373 85.1413 250.144 87.993C251.916 90.8446 252.803 94.1573 252.693 97.5126C252.621 99.7489 252.109 101.949 251.185 103.987C250.26 106.024 248.943 107.859 247.307 109.386C245.672 110.913 243.751 112.102 241.655 112.884C239.559 113.667 237.329 114.028 235.093 113.946V113.935Z" fill="#0066FF"/>
<path opacity="0.3" d="M281.969 178.841L282.275 175.953L280.542 175.24C280.536 174.256 280.449 173.275 280.282 172.306L281.868 171.298L281.063 168.501H279.183C278.808 167.591 278.353 166.715 277.824 165.885L278.9 164.345L277.077 162.079L275.344 162.804C274.644 162.11 273.887 161.477 273.079 160.913L273.498 159.067L270.95 157.662L269.602 159.033C268.694 158.653 267.754 158.353 266.793 158.138L266.476 156.281L263.588 155.952L262.875 157.685C261.891 157.696 260.91 157.787 259.941 157.957L258.933 156.36L256.136 157.175V159.056C255.229 159.437 254.354 159.892 253.52 160.415L251.98 159.282L249.714 161.105L250.439 162.838C249.749 163.542 249.117 164.299 248.548 165.103L246.724 164.696L245.32 167.244L246.657 168.558C246.282 169.472 245.983 170.415 245.762 171.378L243.904 171.683L243.599 174.571L245.331 175.296C245.332 176.276 245.419 177.254 245.592 178.218L243.995 179.226L244.81 182.024H246.691C247.069 182.929 247.524 183.8 248.05 184.629L246.917 186.169L248.729 188.434L250.473 187.698C251.173 188.392 251.931 189.024 252.738 189.589L252.319 191.435L254.868 192.84L256.204 191.503C257.114 191.874 258.054 192.169 259.013 192.386L259.33 194.244L262.218 194.572L262.931 192.828C263.915 192.817 264.896 192.726 265.865 192.556L266.873 194.153L269.659 193.338V191.458C270.566 191.076 271.441 190.622 272.275 190.099L273.804 191.231L276.069 189.419L275.333 187.686C276.026 186.983 276.663 186.226 277.235 185.421L279.059 185.829L280.463 183.281L279.127 181.967C279.496 181.056 279.791 180.117 280.01 179.158L281.969 178.841ZM267.394 177.709C266.914 178.586 266.186 179.301 265.3 179.763C264.414 180.226 263.411 180.416 262.418 180.308C261.424 180.201 260.485 179.801 259.719 179.159C258.953 178.518 258.394 177.664 258.113 176.705C257.833 175.745 257.843 174.725 258.142 173.771C258.442 172.818 259.018 171.975 259.797 171.349C260.576 170.723 261.523 170.342 262.518 170.254C263.514 170.167 264.513 170.376 265.389 170.857C266.554 171.512 267.412 172.601 267.777 173.887C268.142 175.173 267.984 176.55 267.337 177.72L267.394 177.709Z" fill="#0066FF"/>
<path d="M298.007 129.904L294.609 127.571C294.276 126.357 293.821 125.181 293.25 124.06L294.111 120.662L289.218 115.418L285.82 116.053C284.745 115.407 283.606 114.872 282.423 114.456L280.328 110.922L273.158 110.673L270.825 114.071C269.612 114.403 268.436 114.859 267.314 115.43L263.917 114.569L258.673 119.462L259.307 122.859C258.659 123.934 258.124 125.072 257.71 126.257L254.177 128.352L253.928 135.521L257.325 137.854C257.653 139.077 258.108 140.261 258.684 141.388L257.824 144.785L262.716 150.029L266.114 149.406C267.19 150.051 268.328 150.586 269.512 151.003L271.607 154.525L278.776 154.774L281.109 151.377C282.334 151.045 283.521 150.59 284.654 150.018L288.052 150.879L293.295 145.986L292.661 142.588C293.309 141.514 293.844 140.375 294.258 139.191L297.791 137.095L298.007 129.904ZM275.661 140.799C274.068 140.744 272.526 140.218 271.232 139.288C269.937 138.357 268.947 137.064 268.387 135.571C267.827 134.078 267.723 132.452 268.087 130.9C268.45 129.348 269.266 127.938 270.431 126.849C271.596 125.76 273.057 125.041 274.631 124.783C276.204 124.524 277.819 124.738 279.271 125.397C280.723 126.056 281.946 127.131 282.788 128.485C283.629 129.84 284.05 131.413 283.997 133.007C283.923 135.145 283.004 137.166 281.441 138.627C279.878 140.088 277.8 140.869 275.661 140.799Z" fill="white"/>
<path d="M322.651 72.6758L323.24 71.2488C323.642 71.0299 324.021 70.772 324.373 70.4787H325.686L327.227 68.2136L326.728 67.0017C326.881 66.5531 326.987 66.0902 327.045 65.62L328.178 64.5781L327.702 61.9279L326.275 61.339C326.056 60.9371 325.798 60.5577 325.505 60.2064V58.8927L323.24 57.3524L322.028 57.8507C321.58 57.6971 321.117 57.5908 320.647 57.5336L319.605 56.401L316.954 56.8767L316.365 58.3037C315.943 58.5183 315.545 58.7764 315.176 59.0739H313.863L312.322 61.339L312.821 62.5508C312.718 62.9857 312.658 63.4294 312.639 63.8759L311.507 64.9178L311.983 67.568L313.41 68.1569C313.629 68.5788 313.891 68.9772 314.191 69.3461V70.6485L316.456 72.1888L317.668 71.6905C318.116 71.8441 318.579 71.9504 319.05 72.0076L320.103 73.1402L322.651 72.6758ZM316.886 65.3256C316.779 64.7341 316.849 64.1241 317.089 63.5728C317.328 63.0215 317.726 62.5537 318.232 62.2287C318.738 61.9038 319.329 61.7364 319.93 61.7476C320.531 61.7589 321.115 61.9483 321.608 62.292C322.101 62.6356 322.481 63.118 322.7 63.6779C322.919 64.2378 322.966 64.8501 322.836 65.437C322.707 66.024 322.406 66.5592 321.972 66.9749C321.537 67.3906 320.989 67.668 320.397 67.7719C319.608 67.9105 318.795 67.731 318.137 67.2726C317.48 66.8143 317.03 66.1143 316.886 65.3256Z" fill="#0066FF"/>
<path d="M291.574 65.167L290.713 64.4422C292.583 62.1251 294.892 60.2006 297.508 58.7794L298.029 59.7874C295.547 61.1418 293.354 62.9695 291.574 65.167Z" fill="#0066FF"/>
<path d="M300.612 58.7228L300.17 57.6808C304.347 55.8435 308.921 55.0917 313.466 55.495L313.364 56.6275C309.004 56.2322 304.616 56.9533 300.612 58.7228Z" fill="#0066FF"/>
<path d="M298.482 66.56L297.542 65.9258C300.275 62.2457 304.244 59.6759 308.72 58.6888L308.935 59.8213C304.755 60.7388 301.044 63.1309 298.482 66.56Z" fill="#0066FF"/>
<path d="M223.326 175.545C223.25 175.546 223.175 175.531 223.105 175.502C223.035 175.473 222.972 175.43 222.918 175.376L220.54 172.929C219.333 172.815 218.139 172.592 216.973 172.261L213.269 173.892C213.186 173.938 213.092 173.961 212.997 173.961C212.902 173.961 212.809 173.938 212.726 173.892L206.519 169.781C206.441 169.728 206.378 169.657 206.335 169.574C206.291 169.491 206.269 169.399 206.27 169.305L206.327 165.273C205.566 164.326 204.895 163.31 204.322 162.238L201.14 161.003C201.05 160.969 200.971 160.912 200.91 160.839C200.849 160.766 200.807 160.678 200.788 160.584L199.384 153.257C199.365 153.164 199.369 153.067 199.397 152.976C199.424 152.885 199.475 152.802 199.543 152.736L201.989 150.357C202.101 149.151 202.321 147.957 202.646 146.79L201.015 143.098C200.969 143.015 200.945 142.921 200.945 142.826C200.945 142.731 200.969 142.638 201.015 142.554L205.126 136.348C205.175 136.267 205.246 136.201 205.329 136.157C205.413 136.113 205.507 136.093 205.602 136.099L209.634 136.155C210.583 135.4 211.599 134.733 212.669 134.162L213.903 130.98C213.938 130.89 213.994 130.811 214.068 130.75C214.141 130.689 214.229 130.647 214.322 130.628L221.616 129.145C221.709 129.126 221.806 129.131 221.896 129.159C221.987 129.186 222.07 129.236 222.137 129.303L224.504 131.75C225.71 131.862 226.904 132.082 228.072 132.407L231.764 130.776C231.847 130.73 231.941 130.706 232.036 130.706C232.131 130.706 232.224 130.73 232.307 130.776L238.514 134.887C238.591 134.939 238.655 135.01 238.698 135.093C238.742 135.176 238.764 135.269 238.763 135.363L238.706 139.406C239.463 140.35 240.13 141.362 240.7 142.43L243.882 143.664C243.971 143.699 244.05 143.755 244.111 143.828C244.173 143.902 244.215 143.989 244.233 144.083L245.717 151.377C245.736 151.47 245.732 151.567 245.704 151.658C245.676 151.749 245.626 151.831 245.558 151.898L243.112 154.276C242.995 155.479 242.771 156.669 242.444 157.832L244.075 161.536C244.12 161.619 244.144 161.713 244.144 161.808C244.144 161.903 244.12 161.996 244.075 162.079L239.963 168.274C239.91 168.351 239.838 168.413 239.756 168.456C239.673 168.5 239.581 168.523 239.488 168.524L235.456 168.467C234.507 169.222 233.491 169.89 232.421 170.46L231.096 173.711C231.061 173.8 231.004 173.879 230.931 173.94C230.858 174.002 230.77 174.043 230.676 174.062L223.439 175.545H223.326ZM216.939 171.095H217.097C218.32 171.454 219.576 171.69 220.846 171.797C220.983 171.807 221.112 171.868 221.208 171.967L223.473 174.345L230.155 172.986L231.356 169.894C231.408 169.766 231.504 169.661 231.628 169.6C232.761 169.012 233.831 168.31 234.822 167.504C234.87 167.46 234.928 167.426 234.99 167.405C235.052 167.383 235.118 167.375 235.184 167.38L239.114 167.436L242.885 161.774L241.3 158.172C241.255 158.048 241.255 157.911 241.3 157.787C241.657 156.564 241.893 155.308 242.002 154.038C242.013 153.901 242.073 153.772 242.172 153.676L244.55 151.411L243.191 144.729L240.156 143.483C240.024 143.434 239.915 143.337 239.85 143.211C239.264 142.081 238.562 141.014 237.755 140.029C237.67 139.923 237.626 139.79 237.63 139.655L237.687 135.725L232.024 131.954L228.423 133.539C228.298 133.583 228.162 133.583 228.038 133.539C226.811 133.181 225.551 132.946 224.278 132.837C224.14 132.826 224.011 132.766 223.915 132.667L221.65 130.289L214.968 131.648L213.666 134.774C213.614 134.902 213.517 135.006 213.394 135.068C212.261 135.656 211.19 136.358 210.2 137.163C210.096 137.252 209.962 137.297 209.826 137.288L205.896 137.231L202.125 142.894L203.71 146.496C203.747 146.572 203.765 146.655 203.765 146.739C203.765 146.823 203.747 146.906 203.71 146.982C203.377 148.179 203.157 149.403 203.054 150.641C203.043 150.778 202.982 150.907 202.884 151.003L200.505 153.268L201.864 159.95L204.956 161.151C205.092 161.205 205.202 161.311 205.262 161.445C205.832 162.589 206.519 163.671 207.312 164.673C207.4 164.778 207.448 164.91 207.448 165.047L207.391 168.977L213.054 172.748L216.655 171.162C216.742 171.116 216.84 171.092 216.939 171.095ZM222.511 167.425C219.785 167.423 217.11 166.682 214.772 165.281C212.433 163.88 210.518 161.871 209.23 159.469C207.941 157.067 207.328 154.36 207.455 151.637C207.582 148.914 208.444 146.276 209.951 144.004C211.391 141.824 213.373 140.056 215.702 138.871C218.031 137.687 220.628 137.127 223.238 137.247C225.848 137.367 228.382 138.162 230.593 139.555C232.804 140.948 234.615 142.891 235.85 145.193C237.085 147.496 237.701 150.08 237.638 152.692C237.575 155.304 236.835 157.855 235.491 160.096C234.146 162.336 232.244 164.189 229.968 165.474C227.693 166.759 225.124 167.431 222.511 167.425ZM210.891 144.627C209.366 146.929 208.558 149.632 208.569 152.394C208.58 155.156 209.41 157.852 210.953 160.143C212.497 162.433 214.685 164.214 217.241 165.26C219.796 166.307 222.605 166.572 225.312 166.023C228.018 165.473 230.501 164.134 232.446 162.173C234.391 160.212 235.712 157.719 236.24 155.008C236.768 152.298 236.48 149.491 235.413 146.944C234.347 144.396 232.548 142.222 230.246 140.697C228.722 139.67 227.008 138.957 225.205 138.599C223.403 138.241 221.547 138.245 219.746 138.611C217.945 138.977 216.234 139.697 214.714 140.73C213.194 141.762 211.894 143.087 210.891 144.627Z" fill="white"/>
<path d="M208.716 283.013C210.29 257.644 207.391 211.515 255.082 217.62C306.206 224.166 291.573 283.942 291.573 283.942L208.716 283.013Z" fill="#263238"/>
<path d="M241.64 267.769C253.136 267.769 262.456 258.449 262.456 246.953C262.456 235.456 253.136 226.137 241.64 226.137C230.143 226.137 220.823 235.456 220.823 246.953C220.823 258.449 230.143 267.769 241.64 267.769Z" fill="white"/>
<path d="M244.369 226.17C234.516 224.483 223.983 231.754 222.93 239.116L262.014 242.706C260.632 234.314 252.195 227.507 244.369 226.17Z" fill="#263238"/>
<path d="M257.565 246.438C257.845 240.997 255.332 236.446 251.952 236.272C248.573 236.099 245.607 240.369 245.327 245.81C245.048 251.25 247.561 255.802 250.94 255.975C254.32 256.149 257.286 251.879 257.565 246.438Z" fill="#263238"/>
<path d="M241.64 268.89C237.3 268.893 233.057 267.608 229.447 265.2C225.837 262.792 223.022 259.367 221.358 255.359C219.694 251.351 219.255 246.94 220.097 242.683C220.939 238.426 223.024 234.514 226.088 231.441C229.153 228.369 233.06 226.274 237.315 225.421C241.57 224.568 245.982 224.995 249.994 226.649C254.006 228.303 257.438 231.11 259.855 234.713C262.273 238.317 263.568 242.557 263.577 246.896C263.583 252.721 261.276 258.311 257.162 262.435C253.048 266.559 247.465 268.881 241.64 268.89ZM241.64 227.269C237.744 227.267 233.935 228.421 230.695 230.585C227.455 232.749 224.931 235.826 223.441 239.425C221.951 243.025 221.563 246.986 222.326 250.807C223.089 254.627 224.968 258.136 227.726 260.887C230.484 263.639 233.997 265.51 237.819 266.264C241.641 267.018 245.601 266.621 249.198 265.123C252.794 263.625 255.865 261.093 258.022 257.848C260.178 254.604 261.323 250.792 261.312 246.896C261.294 241.688 259.214 236.7 255.528 233.022C251.841 229.343 246.848 227.275 241.64 227.269Z" fill="#0066FF"/>
<path opacity="0.3" d="M285.775 282.368H285.639C285.494 282.333 285.368 282.242 285.29 282.114C285.211 281.987 285.186 281.834 285.22 281.688C285.22 281.541 288.867 266.184 285.118 250.656C285.084 250.506 285.11 250.348 285.192 250.218C285.274 250.087 285.404 249.994 285.554 249.96C285.705 249.925 285.862 249.952 285.993 250.033C286.124 250.115 286.216 250.246 286.251 250.396C290.068 266.251 286.387 281.801 286.353 281.96C286.317 282.083 286.24 282.191 286.135 282.265C286.03 282.339 285.903 282.375 285.775 282.368Z" fill="white"/>
<path opacity="0.3" d="M282.616 242.151C282.508 242.15 282.403 242.119 282.313 242.061C282.223 242.002 282.151 241.92 282.106 241.822C280.694 238.713 278.89 235.798 276.738 233.147C276.66 233.03 276.629 232.888 276.65 232.75C276.671 232.611 276.743 232.485 276.851 232.396C276.96 232.307 277.098 232.262 277.238 232.269C277.378 232.276 277.51 232.334 277.61 232.433C279.825 235.157 281.682 238.152 283.136 241.347C283.176 241.433 283.194 241.527 283.188 241.622C283.181 241.716 283.152 241.808 283.101 241.888C283.05 241.968 282.98 242.034 282.897 242.08C282.815 242.126 282.722 242.15 282.627 242.151H282.616Z" fill="white"/>
<path d="M102.585 402.056H102.166C100.664 402.015 99.2401 401.38 98.2068 400.289C97.1735 399.198 96.6158 397.742 96.6564 396.24C96.6969 394.738 97.3324 393.314 98.4231 392.281C99.5137 391.247 100.97 390.69 102.472 390.73H102.585C105.858 390.73 113.73 386.755 130.197 360.797C130.634 360.108 131.215 359.521 131.9 359.077C132.585 358.633 133.358 358.342 134.166 358.225C134.974 358.108 135.797 358.167 136.58 358.398C137.363 358.628 138.087 359.026 138.702 359.562C151.632 370.683 165.736 380.359 180.765 388.42C182.096 389.104 183.102 390.287 183.564 391.71C184.025 393.133 183.905 394.681 183.228 396.016C182.552 397.351 181.375 398.364 179.954 398.833C178.534 399.303 176.985 399.191 175.646 398.522C161.682 391.095 148.481 382.313 136.233 372.304C122.371 392.995 112.178 402.056 102.585 402.056Z" fill="#263238"/>
<path d="M137.615 358.509C137.452 358.521 137.29 358.521 137.128 358.509C136.236 358.383 135.43 357.907 134.889 357.187C134.347 356.467 134.114 355.562 134.24 354.67C135.044 349.007 134.047 327.908 126.912 311.486C126.595 310.76 126.541 309.946 126.761 309.185C126.98 308.424 127.458 307.764 128.112 307.318C143.628 296.751 176.676 295.483 178.069 295.437C178.97 295.406 179.847 295.734 180.507 296.348C181.166 296.963 181.554 297.815 181.586 298.716C181.617 299.617 181.29 300.494 180.675 301.153C180.06 301.813 179.208 302.201 178.307 302.233C178.001 302.233 149.11 303.365 134.262 311.52C140.582 327.874 142.02 348.26 140.967 355.632C140.843 356.433 140.437 357.163 139.822 357.69C139.207 358.217 138.425 358.508 137.615 358.509Z" fill="#263238"/>
<path d="M143.322 354.104C141.057 348.769 130.864 349.381 124.896 353.945C121.702 356.391 117.375 363.73 116.968 366.403C116.832 367.038 116.852 367.697 117.027 368.322C117.202 368.948 117.526 369.521 117.972 369.994C118.418 370.466 118.971 370.823 119.586 371.034C120.2 371.245 120.856 371.304 121.498 371.205C125.405 370.865 130.762 365.191 130.762 365.191C127.195 368.691 131.793 371.16 138.69 366.097C142.462 363.289 145.859 360.072 143.322 354.104Z" fill="#0066FF"/>
<path d="M338.122 284.508H337.963C337.819 284.466 337.698 284.369 337.625 284.237C337.553 284.105 337.536 283.95 337.578 283.806C339.085 278.551 340.738 275.346 342.901 273.556C342.56 272.339 342.62 271.045 343.071 269.864C343.598 268.488 344.53 267.303 345.744 266.467C345.416 266.109 345.183 265.675 345.066 265.204C344.949 264.733 344.953 264.241 345.076 263.771C345.485 262.352 346.334 261.099 347.499 260.192C347.084 259.72 346.854 259.112 346.854 258.482C346.854 255.085 353.094 249.954 360.173 248.991C360.247 248.98 360.322 248.984 360.394 249.003C360.466 249.021 360.534 249.055 360.593 249.1C360.653 249.145 360.702 249.202 360.739 249.267C360.775 249.332 360.799 249.404 360.807 249.478C360.826 249.627 360.786 249.777 360.695 249.896C360.603 250.015 360.469 250.093 360.32 250.113C353.593 251.03 347.953 255.9 347.975 258.471C347.975 258.85 348.121 259.216 348.383 259.49C349.908 258.46 351.622 257.743 353.426 257.382C355.231 257.02 357.089 257.021 358.893 257.384C362.37 258.052 363.786 258.788 363.616 259.841C363.31 261.823 355.903 262.242 350.942 261.642C350.054 261.562 349.189 261.312 348.394 260.906C347.327 261.667 346.533 262.751 346.129 263.998C346.035 264.329 346.038 264.68 346.138 265.01C346.239 265.339 346.432 265.633 346.695 265.855C348.802 264.723 351.758 264.315 355.665 265.187C360.807 266.319 360.999 266.942 361.113 267.316C361.153 267.445 361.158 267.583 361.126 267.715C361.094 267.847 361.027 267.967 360.932 268.064C359.799 269.196 351.973 268.664 348.02 267.701C347.547 267.59 347.091 267.419 346.661 267.192C345.489 267.902 344.585 268.982 344.09 270.261C343.769 271.089 343.679 271.99 343.83 272.866C344.034 272.741 344.238 272.628 344.453 272.537C346.797 271.405 349.629 271.608 353.117 273.103C355.382 274.1 356.515 274.972 356.628 275.867C356.634 276.097 356.577 276.324 356.463 276.523C356.35 276.723 356.183 276.888 355.982 276.999C354.261 278.132 348.202 277.973 345.053 276.297C344.326 275.908 343.722 275.324 343.309 274.61C341.463 276.297 339.911 279.332 338.598 284.078C338.571 284.189 338.512 284.29 338.427 284.367C338.342 284.444 338.235 284.493 338.122 284.508ZM344.272 273.942C344.587 274.527 345.067 275.008 345.653 275.323C348.213 276.682 353.242 276.999 355.122 276.229C355.507 276.071 355.563 275.946 355.563 275.946C355.563 275.946 355.507 275.312 352.732 274.123C349.561 272.764 347.069 272.571 344.997 273.534C344.742 273.653 344.496 273.789 344.26 273.942H344.272ZM348.043 266.501L348.338 266.58C352.022 267.428 355.814 267.711 359.584 267.418C358.244 266.926 356.865 266.547 355.461 266.285C353.021 265.626 350.441 265.7 348.043 266.501ZM349.47 260.136C350.013 260.319 350.576 260.437 351.146 260.487C356.809 261.155 361.77 260.362 362.472 259.66C362.279 259.49 361.52 259.003 358.7 258.46C355.522 257.826 352.223 258.426 349.47 260.136Z" fill="#263238"/>
<path d="M190.686 400.13C191.434 399.893 191.185 399.168 190.347 399.168H175.012C145.815 396.076 125.418 400.221 138.272 401.195C151.126 402.169 137.366 401.965 127.977 405.521C118.588 409.078 197.799 409.972 204.991 405.521C211.65 401.422 180.346 403.437 190.686 400.13Z" fill="#263238"/>
<path d="M300.475 404.649L167.061 400.221L161.522 270.861L319.072 274.383L300.475 404.649Z" fill="#0066FF"/>
<path d="M208.716 402.169C208.574 402.169 208.436 402.116 208.331 402.019C208.226 401.923 208.162 401.79 208.15 401.648L197.459 271.722C197.447 271.572 197.495 271.423 197.593 271.308C197.69 271.193 197.83 271.122 197.98 271.11C198.13 271.098 198.279 271.146 198.394 271.244C198.508 271.342 198.579 271.481 198.591 271.631L209.283 401.557C209.289 401.632 209.28 401.707 209.257 401.778C209.235 401.849 209.198 401.915 209.149 401.972C209.101 402.028 209.042 402.075 208.975 402.109C208.909 402.143 208.836 402.163 208.762 402.169H208.716Z" fill="#263238"/>
<path d="M300.476 404.649L336.332 399.179L347.635 278.902L319.072 274.383L300.476 404.649Z" fill="#0066FF"/>
<path opacity="0.2" d="M300.476 404.649L336.332 399.179L347.635 278.902L319.072 274.383L300.476 404.649Z" fill="black"/>
<path d="M178.466 375.282L175.182 298.427C175.101 296.528 175.41 294.633 176.091 292.858C176.771 291.084 177.809 289.468 179.139 288.11C180.469 286.752 182.063 285.682 183.823 284.965C185.584 284.248 187.472 283.9 189.372 283.942L289.105 286.207C291.069 286.251 293.001 286.712 294.774 287.557C296.547 288.403 298.12 289.615 299.391 291.113C300.661 292.611 301.599 294.362 302.144 296.249C302.688 298.137 302.826 300.118 302.548 302.063L291.495 379.518C291.011 382.908 289.293 386 286.67 388.2C284.047 390.401 280.703 391.556 277.281 391.444L191.898 388.612C188.389 388.498 185.054 387.06 182.562 384.587C180.071 382.114 178.607 378.79 178.466 375.282Z" fill="#263238"/>
<path d="M189.191 307.533L204.616 308.02L204.492 311.995L194.831 311.689L194.741 314.645L203.699 314.929L203.574 318.734L194.616 318.451L194.503 322.12L204.447 322.437L204.311 326.662L188.647 326.175L189.191 307.533Z" fill="white"/>
<path d="M207.527 326.764L208.116 308.133L217.709 308.439C219.086 308.433 220.456 308.632 221.775 309.028C222.708 309.343 223.507 309.966 224.04 310.795C224.429 311.402 224.689 312.082 224.804 312.793C224.919 313.505 224.887 314.232 224.71 314.931C224.533 315.629 224.214 316.284 223.773 316.855C223.333 317.425 222.78 317.899 222.149 318.247C221.504 318.575 220.813 318.8 220.099 318.915C220.622 319.089 221.118 319.337 221.571 319.651C221.907 319.952 222.207 320.29 222.466 320.659C222.757 321.012 223.015 321.391 223.236 321.792L225.852 327.285L219.351 327.081L216.452 321.294C216.225 320.739 215.885 320.238 215.455 319.821C215.06 319.542 214.591 319.388 214.107 319.379H213.598L213.36 326.945L207.527 326.764ZM213.666 315.869L216.089 315.948C216.604 315.925 217.116 315.857 217.618 315.744C217.993 315.684 218.333 315.486 218.57 315.189C218.847 314.83 218.986 314.383 218.961 313.929C218.936 313.476 218.749 313.047 218.434 312.72C217.803 312.309 217.056 312.114 216.305 312.165L213.779 312.086L213.666 315.869Z" fill="white"/>
<path d="M227.777 327.409L228.366 308.779L237.959 309.085C239.336 309.079 240.706 309.277 242.025 309.674C242.958 309.989 243.757 310.612 244.29 311.44C244.682 312.046 244.945 312.725 245.064 313.436C245.183 314.147 245.154 314.875 244.98 315.575C244.806 316.275 244.49 316.931 244.052 317.504C243.614 318.076 243.062 318.553 242.433 318.904C241.788 319.232 241.096 319.457 240.383 319.572C240.906 319.746 241.402 319.994 241.855 320.308C242.191 320.608 242.491 320.947 242.75 321.316C243.041 321.669 243.299 322.048 243.52 322.449L246.136 327.942L239.635 327.738L236.758 321.996C236.531 321.442 236.192 320.94 235.762 320.523C235.358 320.224 234.871 320.057 234.369 320.048H233.859L233.621 327.613L227.777 327.409ZM233.916 316.514L236.339 316.593C236.854 316.571 237.366 316.503 237.868 316.39C238.244 316.33 238.583 316.132 238.82 315.835C239.097 315.475 239.236 315.028 239.211 314.575C239.186 314.122 238.999 313.692 238.684 313.366C238.053 312.954 237.306 312.76 236.555 312.811L234.029 312.731L233.916 316.514Z" fill="white"/>
<path d="M247.076 318.711C246.988 317.41 247.19 316.106 247.667 314.892C248.144 313.678 248.884 312.585 249.834 311.692C250.783 310.798 251.92 310.126 253.16 309.724C254.401 309.322 255.715 309.201 257.009 309.368C258.313 309.325 259.612 309.545 260.83 310.014C262.048 310.482 263.159 311.191 264.098 312.097C264.936 313.062 265.569 314.187 265.958 315.404C266.348 316.621 266.485 317.904 266.363 319.176C266.376 321.026 265.94 322.852 265.095 324.499C264.335 325.849 263.192 326.945 261.811 327.647C260.184 328.422 258.386 328.765 256.589 328.644C254.797 328.661 253.024 328.274 251.402 327.511C250.014 326.767 248.882 325.623 248.152 324.227C247.302 322.519 246.93 320.613 247.076 318.711ZM252.829 318.915C252.656 320.343 252.98 321.787 253.747 323.004C254.104 323.403 254.538 323.726 255.023 323.953C255.508 324.18 256.033 324.307 256.569 324.327C257.104 324.346 257.637 324.256 258.137 324.064C258.637 323.872 259.093 323.58 259.477 323.208C260.32 321.937 260.718 320.424 260.61 318.904C260.767 317.542 260.434 316.169 259.67 315.03C259.323 314.615 258.888 314.282 258.396 314.057C257.904 313.832 257.368 313.719 256.827 313.728C256.3 313.691 255.772 313.774 255.282 313.97C254.791 314.166 254.352 314.47 253.996 314.861C253.151 316.037 252.739 317.469 252.829 318.915Z" fill="white"/>
<path d="M269.263 328.723L269.852 310.093L279.444 310.398C280.821 310.393 282.191 310.591 283.51 310.987C284.444 311.303 285.242 311.926 285.775 312.754C286.167 313.359 286.431 314.039 286.55 314.75C286.668 315.461 286.64 316.189 286.466 316.889C286.291 317.588 285.975 318.245 285.537 318.818C285.099 319.39 284.548 319.867 283.918 320.218C283.273 320.545 282.582 320.771 281.868 320.886C282.391 321.059 282.887 321.307 283.34 321.622C283.676 321.922 283.977 322.261 284.235 322.63C284.527 322.983 284.784 323.362 285.005 323.762L287.621 329.255L281.121 329.051L278.221 323.264C277.994 322.71 277.655 322.209 277.225 321.792C276.821 321.492 276.334 321.326 275.831 321.316H275.265L275.027 328.882L269.263 328.723ZM275.401 317.828L277.825 317.907C278.339 317.885 278.851 317.816 279.354 317.703C279.729 317.643 280.068 317.445 280.305 317.148C280.582 316.789 280.721 316.342 280.696 315.889C280.672 315.435 280.484 315.006 280.169 314.679C279.539 314.268 278.791 314.073 278.04 314.124L275.514 314.045L275.401 317.828Z" fill="white"/>
<path d="M278.425 360.389C278.212 360.394 278.001 360.353 277.806 360.269C277.61 360.185 277.435 360.06 277.292 359.902L267.598 349.29L257.144 358.849C256.854 359.115 256.471 359.254 256.078 359.237C255.685 359.22 255.315 359.048 255.049 358.758L245.354 348.146L234.89 357.705C234.6 357.971 234.216 358.11 233.823 358.093C233.43 358.076 233.06 357.904 232.795 357.614L223.168 346.991L212.703 356.55C212.413 356.815 212.03 356.955 211.637 356.938C211.244 356.921 210.874 356.749 210.608 356.459L200.913 345.847L190.448 355.406C190.304 355.538 190.135 355.639 189.952 355.706C189.768 355.772 189.573 355.802 189.378 355.793C189.183 355.784 188.992 355.737 188.815 355.654C188.638 355.571 188.479 355.454 188.348 355.31C188.216 355.165 188.114 354.997 188.048 354.813C187.981 354.629 187.952 354.434 187.961 354.239C187.969 354.044 188.017 353.853 188.1 353.676C188.183 353.499 188.3 353.34 188.444 353.209L200.007 342.642C200.297 342.376 200.681 342.237 201.074 342.254C201.466 342.271 201.836 342.443 202.102 342.733L211.797 353.345L222.262 343.786C222.552 343.52 222.935 343.381 223.328 343.398C223.721 343.415 224.091 343.587 224.357 343.877L234.052 354.489L244.516 344.93C244.806 344.664 245.19 344.524 245.583 344.541C245.976 344.558 246.346 344.731 246.612 345.02L256.306 355.632L266.771 346.074C267.061 345.808 267.445 345.668 267.837 345.685C268.23 345.702 268.6 345.875 268.866 346.164L279.524 357.886C279.722 358.101 279.853 358.369 279.9 358.658C279.947 358.947 279.907 359.243 279.786 359.509C279.665 359.775 279.468 360 279.22 360.154C278.972 360.309 278.683 360.387 278.391 360.378L278.425 360.389Z" fill="white"/>
<path d="M99.1985 407.39L92.1087 404.015L85.7891 373.244L89.2207 369.472L99.1985 407.39Z" fill="#0066FF"/>
<path d="M99.1985 407.39L108.61 401.897L100.546 376.551L89.2207 369.472L99.1985 407.39Z" fill="#0066FF"/>
<path opacity="0.2" d="M99.1985 407.39L108.61 401.897L100.546 376.551L89.2207 369.472L99.1985 407.39Z" fill="black"/>
<path d="M253.452 412.985H252.67C251.926 412.965 251.194 412.798 250.515 412.495C249.835 412.192 249.222 411.758 248.711 411.218C248.199 410.678 247.799 410.043 247.533 409.348C247.267 408.653 247.14 407.913 247.16 407.169C247.18 406.426 247.347 405.693 247.65 405.014C247.953 404.334 248.387 403.721 248.927 403.21C249.467 402.698 250.103 402.298 250.797 402.032C251.492 401.766 252.232 401.639 252.976 401.659C261.697 401.942 280.157 396.585 290.713 386.347C291.35 385.722 292.126 385.256 292.978 384.988C310.861 379.62 317.509 390.458 317.792 390.923L308.109 396.687C308.148 396.759 308.193 396.827 308.244 396.891C308.131 396.744 305.606 393.494 297.542 395.487C284.325 407.571 263.939 412.985 253.452 412.985Z" fill="#263238"/>
<path d="M252.829 420.516L232.194 419.214L230.574 381.194L258.288 382.225L252.829 420.516Z" fill="#0066FF"/>
<path d="M252.829 420.516L257.642 415.714L260.632 392.01L258.288 382.225L252.829 420.516Z" fill="#0066FF"/>
<path opacity="0.2" d="M252.829 420.516L257.642 415.714L260.632 392.01L258.288 382.225L252.829 420.516Z" fill="black"/>
<path d="M372.324 406.11C371.584 406.109 370.864 405.867 370.274 405.419C358.507 396.472 342.583 380.583 336.479 365.259C336.391 365.036 336.326 364.805 336.286 364.568C333.308 346.867 330.465 309.594 330.341 308.02C330.307 307.574 330.362 307.125 330.502 306.7C330.642 306.275 330.864 305.882 331.156 305.543C331.447 305.204 331.803 304.925 332.203 304.724C332.602 304.522 333.037 304.401 333.483 304.368C333.93 304.334 334.378 304.389 334.803 304.529C335.228 304.668 335.621 304.891 335.961 305.182C336.3 305.474 336.578 305.83 336.78 306.23C336.981 306.629 337.102 307.064 337.136 307.51C337.136 307.895 340.035 345.53 342.946 363.085C349.039 377.989 365.597 393.29 374.408 400.017C374.976 400.448 375.393 401.045 375.602 401.726C375.812 402.407 375.802 403.136 375.574 403.811C375.346 404.486 374.912 405.072 374.333 405.486C373.754 405.901 373.059 406.123 372.347 406.122L372.324 406.11Z" fill="#263238"/>
<path d="M388.033 407.832C385.406 407.832 382.427 406.643 379.188 404.298C378.827 404.036 378.52 403.706 378.287 403.326C378.053 402.946 377.896 402.523 377.826 402.083C377.755 401.642 377.772 401.192 377.876 400.758C377.979 400.324 378.167 399.914 378.429 399.553C378.691 399.191 379.021 398.885 379.402 398.651C379.782 398.418 380.204 398.261 380.645 398.191C381.085 398.12 381.536 398.137 381.97 398.241C382.404 398.344 382.813 398.532 383.175 398.794C385.983 400.821 387.512 401.059 388.045 401.059C388.946 401.059 389.81 401.417 390.447 402.054C391.084 402.691 391.442 403.556 391.442 404.457C391.442 405.358 391.084 406.222 390.447 406.859C389.81 407.496 388.946 407.854 388.045 407.854L388.033 407.832Z" fill="#263238"/>
<path d="M380.139 404.196C383.775 393.392 398.679 395.532 403.81 397.129C408.2 398.408 412.413 400.234 416.347 402.565C419.122 404.377 419.167 407.424 415.464 409.157C410.933 411.297 399.427 409.395 399.427 409.395C405.361 411.988 399.427 416.19 388.996 412.067C385.609 410.742 378.848 408.149 380.139 404.196Z" fill="#0066FF"/>
<path d="M343.954 312.675C342.606 321.848 335.007 328.621 328.823 327.704C322.639 326.786 322.39 318.643 323.738 309.424C325.086 300.205 327.532 293.569 333.716 294.475C339.899 295.381 345.313 303.524 343.954 312.675Z" fill="#263238"/>
<path d="M194.48 276.048C194.993 276.048 195.409 275.632 195.409 275.119C195.409 274.606 194.993 274.191 194.48 274.191C193.968 274.191 193.552 274.606 193.552 275.119C193.552 275.632 193.968 276.048 194.48 276.048Z" fill="#263238"/>
<path d="M202.985 282.741C203.498 282.741 203.914 282.326 203.914 281.813C203.914 281.3 203.498 280.884 202.985 280.884C202.472 280.884 202.057 281.3 202.057 281.813C202.057 282.326 202.472 282.741 202.985 282.741Z" fill="#263238"/>
<path d="M204.027 392.486C204.54 392.486 204.956 392.07 204.956 391.557C204.956 391.044 204.54 390.628 204.027 390.628C203.514 390.628 203.099 391.044 203.099 391.557C203.099 392.07 203.514 392.486 204.027 392.486Z" fill="#263238"/>
<path d="M212.533 399.168C213.046 399.168 213.462 398.752 213.462 398.239C213.462 397.726 213.046 397.31 212.533 397.31C212.02 397.31 211.604 397.726 211.604 398.239C211.604 398.752 212.02 399.168 212.533 399.168Z" fill="#263238"/>
<path d="M50.2272 409.383C48.6031 409.3 47.0181 408.855 45.5878 408.081C44.1575 407.307 42.918 406.224 41.9595 404.91C41.9125 404.849 41.8782 404.779 41.859 404.705C41.8397 404.631 41.8357 404.553 41.8473 404.477C41.859 404.401 41.8859 404.328 41.9266 404.263C41.9673 404.198 42.0208 404.142 42.0839 404.098C42.147 404.054 42.2183 404.024 42.2936 404.008C42.3689 403.993 42.4465 403.993 42.5218 404.008C42.597 404.024 42.6683 404.055 42.7313 404.099C42.7943 404.143 42.8477 404.199 42.8882 404.264C45.0061 407.311 49.6835 408.942 51.7335 407.979C51.9357 407.889 52.1169 407.758 52.2658 407.594C51.2347 407.141 50.3309 406.441 49.6338 405.556C48.9366 404.671 48.4676 403.629 48.2679 402.52C48.0074 401.082 47.8035 399.123 48.9927 398.873C50.6122 398.511 52.7414 402.441 53.5229 405.42C53.6675 405.912 53.7175 406.426 53.6701 406.937C54.3282 407.127 55.0179 407.18 55.6974 407.096C56.0009 407.07 56.2958 406.981 56.563 406.835C56.8302 406.689 57.0638 406.488 57.249 406.246C56.5047 405.684 55.8878 404.97 55.4388 404.152C54.9899 403.334 54.7191 402.431 54.6441 401.501C54.2024 398.409 54.5309 397.865 54.882 397.605C54.9915 397.52 55.1223 397.466 55.26 397.45C55.3978 397.434 55.5373 397.457 55.6634 397.514C56.8752 398.035 58.3476 402.418 58.6194 404.91C58.6484 405.17 58.6484 405.432 58.6194 405.691C59.1071 405.881 59.6251 405.981 60.1483 405.986C61.1082 406.018 62.0567 405.77 62.8778 405.272C62.7187 405.17 62.5673 405.057 62.4247 404.933C61.2922 403.925 60.7712 402.328 60.9751 400.029C61.1336 398.25 61.53 397.288 62.2435 396.982C62.474 396.891 62.7257 396.868 62.9687 396.917C63.2117 396.965 63.4357 397.082 63.6139 397.254C64.3791 398.098 64.9508 399.098 65.2893 400.186C65.6277 401.273 65.7246 402.422 65.5732 403.551C65.4807 404.021 65.2875 404.465 65.007 404.853C67.0795 405.216 70.0128 404.627 72.5271 404.004C72.6773 403.968 72.8356 403.993 72.9673 404.074C73.099 404.154 73.1932 404.284 73.2293 404.434C73.2653 404.584 73.2402 404.743 73.1595 404.874C73.0788 405.006 72.9491 405.1 72.7989 405.136C69.7297 405.895 66.4227 406.507 64.0896 405.839C62.9512 406.705 61.5563 407.167 60.1257 407.152C59.4909 407.143 58.8625 407.024 58.2683 406.801C58.0035 407.208 57.6497 407.548 57.2337 407.797C56.8177 408.047 56.3504 408.198 55.8673 408.24C55.0159 408.346 54.1516 408.273 53.3304 408.024C53.0622 408.466 52.6677 408.817 52.1978 409.032C51.5743 409.291 50.9018 409.411 50.2272 409.383ZM49.2532 400.006C49.1102 400.758 49.1412 401.533 49.3438 402.271C49.5046 403.178 49.8806 404.032 50.4403 404.764C51 405.495 51.727 406.081 52.5602 406.473C52.5468 406.2 52.5012 405.93 52.4243 405.669C51.5409 402.475 49.8874 400.244 49.2532 400.006ZM55.5615 399.021C55.5713 399.802 55.6394 400.582 55.7653 401.354C55.8873 402.735 56.4976 404.028 57.4868 405C57.1994 402.908 56.5437 400.884 55.5502 399.021H55.5615ZM62.6852 398.035C62.6852 398.035 62.2549 398.25 62.0963 400.142C61.9378 402.033 62.2775 403.336 63.1496 404.083C63.3551 404.257 63.5838 404.402 63.8291 404.513C64.1313 404.198 64.3426 403.807 64.4407 403.381C64.6392 401.597 64.1535 399.804 63.0816 398.364C62.8664 398.081 62.7192 398.035 62.6852 398.035Z" fill="#263238"/>
<path d="M215.999 417.934L219.068 412.611L215.999 407.299H212.703L214.561 412.611L212.703 417.934H215.999Z" fill="#263238"/>
<path d="M212.975 415.397C212.596 415.421 212.217 415.368 211.86 415.24C211.503 415.111 211.176 414.911 210.899 414.652C210.623 414.392 210.402 414.079 210.251 413.731C210.101 413.383 210.023 413.007 210.023 412.628C210.023 412.249 210.101 411.874 210.251 411.526C210.402 411.177 210.623 410.864 210.899 410.604C211.176 410.345 211.503 410.145 211.86 410.017C212.217 409.889 212.596 409.835 212.975 409.859L207.754 408.817L206.372 413.03L208.705 416.586L212.975 415.397Z" fill="#263238"/>
<path d="M213.371 407.299H207.222L204.152 412.622L207.222 417.945H213.371L216.441 412.622L213.371 407.299ZM210.302 415.397C209.753 415.399 209.215 415.239 208.757 414.935C208.3 414.632 207.942 414.199 207.731 413.692C207.519 413.185 207.462 412.627 207.568 412.088C207.674 411.549 207.937 411.054 208.325 410.664C208.712 410.275 209.207 410.01 209.745 409.902C210.284 409.794 210.842 409.848 211.35 410.058C211.858 410.268 212.292 410.623 212.597 411.08C212.902 411.536 213.066 412.073 213.066 412.622C213.066 413.356 212.775 414.061 212.257 414.581C211.739 415.101 211.036 415.394 210.302 415.397Z" fill="#0066FF"/>
<path d="M430.063 406.937L427.786 402.985L430.063 399.032H432.509L431.127 402.985L432.509 406.937H430.063Z" fill="#0066FF"/>
<path d="M432.35 405.046C432.632 405.067 432.916 405.029 433.184 404.935C433.452 404.842 433.697 404.694 433.905 404.501C434.113 404.308 434.278 404.074 434.392 403.814C434.505 403.554 434.564 403.274 434.564 402.99C434.564 402.707 434.505 402.426 434.392 402.166C434.278 401.906 434.113 401.673 433.905 401.48C433.697 401.287 433.452 401.139 433.184 401.045C432.916 400.951 432.632 400.914 432.35 400.935L436.223 400.164L437.254 403.29L435.521 405.929L432.35 405.046Z" fill="#0066FF"/>
<path d="M432.01 399.032H436.54L438.806 402.985L436.54 406.937H432.01L429.745 402.985L432.01 399.032ZM434.275 405.046C434.683 405.048 435.083 404.929 435.424 404.704C435.764 404.479 436.03 404.158 436.188 403.781C436.345 403.405 436.388 402.99 436.31 402.589C436.231 402.189 436.036 401.82 435.748 401.531C435.46 401.242 435.093 401.044 434.693 400.964C434.293 400.883 433.878 400.923 433.5 401.079C433.123 401.235 432.801 401.499 432.574 401.838C432.347 402.177 432.225 402.576 432.225 402.985C432.225 403.256 432.279 403.525 432.383 403.776C432.488 404.027 432.641 404.254 432.833 404.446C433.026 404.638 433.254 404.789 433.506 404.892C433.757 404.995 434.026 405.047 434.298 405.046H434.275Z" fill="#263238"/>
<path d="M345.189 412.192H350.308C350.95 412.189 351.565 411.933 352.019 411.479C352.473 411.025 352.729 410.41 352.732 409.768C352.729 409.127 352.473 408.512 352.019 408.058C351.565 407.604 350.95 407.348 350.308 407.345H345.189C344.547 407.348 343.933 407.604 343.479 408.058C343.025 408.512 342.769 409.127 342.766 409.768C342.769 410.41 343.025 411.025 343.479 411.479C343.933 411.933 344.547 412.189 345.189 412.192Z" fill="#263238"/>
<path d="M346.121 411.892C347.386 409.211 346.369 406.075 343.852 404.888C341.334 403.701 338.268 404.913 337.004 407.594C335.74 410.276 336.756 413.412 339.274 414.599C341.791 415.786 344.857 414.574 346.121 411.892Z" fill="#0066FF"/>
<path d="M338.405 414.611L339.809 415.273L344.686 404.926L343.283 404.264L338.405 414.611Z" fill="#263238"/>
</g>
<defs>
<clipPath id="clip0_4834_682">
<rect width="477" height="422" fill="white"/>
</clipPath>
</defs>
</svg>
