<svg width="32" height="34" viewBox="0 0 32 34" fill="none" xmlns="http://www.w3.org/2000/svg">
<path d="M26.4189 2.26562L29.6479 5.43012L29.0495 11.921L29.0483 11.9361C28.7484 15.6257 27.5871 19.1983 25.6542 22.378C23.7212 25.5577 21.0684 28.2594 17.9005 30.2744L16 31.476L14.0995 30.2743C10.9316 28.2594 8.27871 25.5577 6.34576 22.378C4.41281 19.1983 3.25154 15.6257 2.95164 11.9361L2.95045 11.9211L2.35213 5.43012L5.5811 2.26562H26.4189ZM26.8019 4.97446e-10H5.19808C5.01593 -2.93388e-06 4.83556 0.035156 4.66727 0.103469C4.49898 0.171782 4.34607 0.271912 4.21727 0.398141L0.406242 4.13309C0.146127 4.38801 -2.96325e-06 4.73377 0 5.09429L0.646675 12.1099C0.963787 16.1503 2.22998 20.0641 4.34629 23.5454C6.4626 27.0267 9.3717 29.9813 12.8462 32.1782L15.4987 33.8552C15.6481 33.9497 15.8222 34 16 34C16.1778 34 16.3519 33.9497 16.5013 33.8552L19.1537 32.1782C22.6283 29.9813 25.5374 27.0267 27.6537 23.5454C29.77 20.0641 31.0362 16.1503 31.3533 12.1099L32 5.09431C32 4.9158 31.9641 4.73903 31.8944 4.5741C31.8247 4.40917 31.7225 4.25932 31.5937 4.13309L27.7827 0.398141C27.6539 0.271911 27.501 0.171781 27.3327 0.103467C27.1644 0.0351536 26.9841 -4.82874e-06 26.8019 4.97446e-10Z" fill="white"/>
<circle cx="16" cy="15" r="5" fill="white"/>
</svg>
