<svg width="82" height="86" viewBox="0 0 82 86" fill="none" xmlns="http://www.w3.org/2000/svg">
<path d="M67.6983 5.73068L75.9727 13.735L74.4394 30.1532L74.4363 30.1914C73.6678 39.5238 70.6921 48.5604 65.7389 56.6032C60.7857 64.646 53.9877 71.4797 45.8699 76.5764L41 79.6158L36.13 76.5763C28.0122 71.4795 21.2142 64.6459 16.261 56.6031C11.3078 48.5604 8.33207 39.5238 7.56358 30.1914L7.56053 30.1534L6.02733 13.735L14.3016 5.73068H67.6983ZM68.68 1.25825e-09H13.3201C12.8533 -7.42099e-06 12.3911 0.088924 11.9599 0.261716C11.5286 0.434509 11.1368 0.687778 10.8068 1.00706L1.041 10.4543C0.374451 11.0991 -7.59332e-06 11.9736 1.15837e-10 12.8855L1.6571 30.6308C2.4697 40.8507 5.71431 50.7503 11.1374 59.556C16.5604 68.3618 24.015 75.835 32.9185 81.3918L39.7154 85.6339C40.0983 85.8729 40.5443 86 41 86C41.4557 86 41.9017 85.8729 42.2846 85.6339L49.0814 81.3918C57.9849 75.835 65.4395 68.3618 70.8625 59.556C76.2856 50.7503 79.5302 40.8507 80.3428 30.6308L82 12.8856C82 12.4341 81.9081 11.987 81.7294 11.5698C81.5508 11.1526 81.289 10.7736 80.959 10.4543L71.1931 1.00706C70.8631 0.687775 70.4713 0.434504 70.0401 0.261711C69.6088 0.088918 69.1467 -1.22139e-05 68.68 1.25825e-09Z" fill="#0066FF"/>
<circle cx="41" cy="38" r="13" fill="#0066FF"/>
</svg>
