<svg width="67" height="353" viewBox="0 0 67 353" fill="none" xmlns="http://www.w3.org/2000/svg">
<rect x="25.6938" y="-1.875" width="4.44653" height="93.75" fill="white"/>
<rect x="21.5234" y="-1.875" width="4.17188" height="93.75" fill="#0066FF"/>
<path d="M20.7133 250.134C19.5911 250.149 18.4856 249.862 17.5117 249.304C16.3936 248.57 15.4912 247.552 14.8972 246.354C14.3033 245.155 14.0392 243.82 14.1322 242.486C14.2646 239.688 15.0659 236.963 16.4689 234.539C17.8718 232.115 19.8356 230.062 22.1955 228.553C23.3196 227.833 24.6156 227.426 25.9497 227.374C27.2837 227.321 28.6076 227.626 29.7844 228.257C30.9025 228.991 31.8049 230.009 32.3989 231.208C32.9928 232.406 33.2569 233.741 33.1639 235.075C33.0268 237.868 32.2233 240.587 30.8206 243.006C29.4178 245.425 27.4565 247.472 25.1006 248.978C23.7627 249.736 22.2511 250.135 20.7133 250.134ZM26.6421 233.207C26.1323 233.25 25.6421 233.423 25.2192 233.711C23.7482 234.705 22.5258 236.024 21.6467 237.566C20.7676 239.109 20.2555 240.833 20.15 242.605C20.15 243.702 20.4465 244.206 20.5947 244.294C20.7429 244.383 21.3358 244.294 22.2548 243.85C23.7242 242.854 24.9454 241.535 25.8243 239.993C26.7032 238.451 27.2163 236.728 27.3239 234.956C27.3239 233.889 27.0275 233.356 26.8793 233.267L26.6421 233.207Z" fill="#0066FF"/>
<path d="M17.927 349.354C15.2171 349.375 12.5456 348.713 10.1602 347.427C-0.541397 341.498 -2.0829 323.711 6.63252 305.925L17.6009 283.455C19.8267 279.114 21.0715 274.337 21.2471 269.462V245.925H27.176V269.462C27.0008 275.24 25.5534 280.909 22.9369 286.063L11.9685 308.563C4.79457 323.119 5.26888 337.941 12.8578 342.239C21.3657 346.864 35.9507 337.555 44.6958 321.903L48.6384 314.877C46.8522 316.127 44.8378 317.014 42.7096 317.486L42.3539 311.557C47.1281 309.054 51.6371 306.074 55.8124 302.664L61.7412 298.099L60.2886 306.221L49.8835 324.808C41.5238 339.956 28.7175 349.354 17.927 349.354Z" fill="#0066FF"/>
<path d="M25.961 83H21.5144V231.132H25.961V83Z" fill="#0066FF"/>
<path d="M24.8929 253.751C23.7908 253.755 22.7071 253.468 21.7506 252.921C20.6124 252.189 19.6923 251.164 19.0872 249.954C18.482 248.744 18.2142 247.393 18.3119 246.043C18.4489 243.251 19.2524 240.531 20.6552 238.113C22.0579 235.694 24.0192 233.646 26.3751 232.14C27.4857 231.397 28.7748 230.963 30.1091 230.885C31.4433 230.807 32.7742 231.087 33.964 231.696C35.0821 232.43 35.9845 233.448 36.5785 234.646C37.1724 235.845 37.4365 237.18 37.3435 238.514C37.2064 241.307 36.403 244.026 35.0002 246.445C33.5975 248.863 31.6362 250.911 29.2803 252.417C27.9596 253.238 26.4468 253.697 24.8929 253.751ZM30.8218 236.824C30.3119 236.866 29.8217 237.04 29.3988 237.328C27.9278 238.322 26.7054 239.641 25.8263 241.183C24.9473 242.725 24.4351 244.449 24.3297 246.221C24.3297 247.318 24.6261 247.822 24.7743 247.911C24.9225 248 25.5154 247.911 26.4344 247.466C27.9038 246.471 29.1251 245.152 30.0039 243.61C30.8828 242.068 31.3959 240.345 31.5036 238.573C31.5036 237.506 31.2071 236.972 31.0589 236.883L30.8218 236.824Z" fill="white"/>
<path d="M22.1069 353C19.3971 353.022 16.7256 352.359 14.3401 351.073C3.63854 345.144 2.09703 327.358 10.8124 309.571L21.7512 287.101C23.971 282.749 25.2057 277.962 25.3678 273.079V249.541H31.2966V273.079C31.1214 278.857 29.674 284.525 27.0575 289.68L16.0891 312.15C8.91522 326.972 9.35988 341.617 17.1267 345.826C25.6346 350.451 40.2196 341.142 48.9646 325.49L52.9073 318.464C51.1211 319.714 49.1066 320.601 46.9785 321.073L46.6227 315.144C51.3969 312.641 55.906 309.661 60.0812 306.251L66.0101 301.686L64.5872 309.749L54.182 328.336C45.7038 343.603 32.8974 353 22.1069 353Z" fill="white"/>
<path d="M30.1405 83H25.6938V234.749H30.1405V83Z" fill="white"/>
</svg>
