<svg width="38" height="38" viewBox="0 0 38 38" fill="none" xmlns="http://www.w3.org/2000/svg">
<circle cx="16.5" cy="16.5" r="16.5" fill="#FF2828"/>
<path d="M22 6C18.8355 6 15.7421 6.93838 13.1109 8.69649C10.4797 10.4546 8.42894 12.9534 7.21793 15.8771C6.00693 18.8007 5.69008 22.0177 6.30744 25.1214C6.92481 28.2251 8.44866 31.0761 10.6863 33.3137C12.9239 35.5513 15.7749 37.0752 18.8786 37.6926C21.9823 38.3099 25.1993 37.9931 28.1229 36.7821C31.0466 35.5711 33.5454 33.5203 35.3035 30.8891C37.0616 28.2579 38 25.1645 38 22C37.9962 17.7577 36.3093 13.6902 33.3096 10.6905C30.3098 7.69069 26.2423 6.00377 22 6ZM36.6916 21.3529H30.5333C30.4963 18.7955 30.1013 16.2559 29.36 13.808C30.4855 13.2262 31.5362 12.5099 32.4889 11.6747C35.0439 14.2663 36.5422 17.7166 36.6916 21.3529ZM22.6471 7.35111C24.2613 7.65689 25.7831 9.07911 26.992 11.44C27.2583 11.9914 27.4957 12.5563 27.7031 13.1324C26.0889 13.8192 24.3642 14.2095 22.6116 14.2844L22.6471 7.35111ZM21.3529 7.35111V14.2844C19.6003 14.2095 17.8755 13.8192 16.2613 13.1324C16.4688 12.5563 16.7061 11.9914 16.9724 11.44C18.2169 9.07911 19.7387 7.65689 21.3529 7.35111ZM21.3529 15.5716V21.3529H14.7822C14.8185 18.9857 15.1749 16.6343 15.8418 14.3627C17.5906 15.0995 19.4569 15.5185 21.3529 15.6V15.5716ZM21.3529 22.6471V28.4C19.4586 28.4724 17.5924 28.8818 15.8418 29.6089C15.1749 27.3373 14.8185 24.9859 14.7822 22.6187L21.3529 22.6471ZM21.3529 29.7156V36.6489C19.7387 36.3431 18.2169 34.9209 17.008 32.56C16.7417 32.0086 16.5043 31.4437 16.2969 30.8676C17.9 30.1849 19.6123 29.7948 21.3529 29.7156ZM22.6471 36.6489V29.7156C24.3997 29.7905 26.1245 30.1808 27.7387 30.8676C27.5312 31.4437 27.2939 32.0086 27.0276 32.56C25.7831 34.9209 24.2613 36.3431 22.6471 36.6489ZM22.6471 28.4284V22.6471H29.2178C29.1816 25.0143 28.8251 27.3657 28.1582 29.6373C26.4094 28.9005 24.5431 28.4815 22.6471 28.4V28.4284ZM22.6471 21.3529V15.6C24.5414 15.5276 26.4076 15.1182 28.1582 14.3911C28.8251 16.6627 29.1816 19.0141 29.2178 21.3813L22.6471 21.3529ZM31.5218 10.8C30.7171 11.4832 29.8423 12.0791 28.912 12.5778C28.6859 11.989 28.4295 11.4122 28.144 10.8498C27.5959 9.74516 26.8759 8.73464 26.0107 7.856C28.0375 8.43083 29.9171 9.43486 31.5218 10.8ZM15.8773 10.8498C15.5918 11.4122 15.3355 11.989 15.1093 12.5778C14.179 12.0791 13.3042 11.4832 12.4996 10.8C14.1001 9.43665 15.9746 8.4327 17.9964 7.856C17.1287 8.73412 16.4062 9.74467 15.856 10.8498H15.8773ZM11.5467 11.6818C12.5033 12.5153 13.5561 13.2315 14.6827 13.8151C13.9275 16.2586 13.5182 18.7959 13.4667 21.3529H7.30845C7.46613 17.7178 8.96903 14.271 11.5253 11.6818H11.5467ZM7.30845 22.6471H13.4667C13.5037 25.2045 13.8987 27.7441 14.64 30.192C13.5134 30.7756 12.4606 31.4918 11.504 32.3253C8.9539 29.731 7.45864 26.2818 7.30845 22.6471ZM12.4782 33.2C13.2829 32.5168 14.1577 31.9209 15.088 31.4222C15.3141 32.011 15.5705 32.5878 15.856 33.1502C16.4041 34.2548 17.1242 35.2654 17.9893 36.144C15.9625 35.5692 14.0829 34.5651 12.4782 33.2ZM28.1227 33.1502C28.4082 32.5878 28.6645 32.011 28.8907 31.4222C29.821 31.9209 30.6958 32.5168 31.5004 33.2C29.8999 34.5633 28.0254 35.5673 26.0036 36.144C26.8713 35.2659 27.5938 34.2553 28.144 33.1502H28.1227ZM32.4533 32.3182C31.4967 31.4847 30.4439 30.7685 29.3173 30.1849C30.0725 27.7414 30.4818 25.2041 30.5333 22.6471H36.7129C36.5495 26.2851 35.0388 29.7323 32.4747 32.3182H32.4533Z" fill="black"/>
</svg>
