<svg width="38" height="38" viewBox="0 0 38 38" fill="none" xmlns="http://www.w3.org/2000/svg">
<circle cx="16.5" cy="16.5" r="16.5" fill="#0066FF"/>
<path d="M33.0833 38H13.9167C12.8598 38 12 37.1029 12 36V11.7244L17.4855 6.00058H33.0833C34.1402 6.00058 35 6.8977 35 8.00054V36C35 37.1029 34.1402 38 33.0833 38ZM13.2778 12.2765V36C13.2778 36.3679 13.5645 36.6667 13.9167 36.6667H33.0833C33.4355 36.6667 33.7222 36.3679 33.7222 36V8.00054C33.7222 7.63271 33.4355 7.33389 33.0833 7.33389H18.0146L13.2778 12.2765Z" fill="black"/>
<path d="M17.7501 12.6671L12.6389 12.6665C12.3803 12.6665 12.1476 12.5037 12.0487 12.255C11.9498 12.0057 12.0044 11.7192 12.1872 11.5285L17.2984 6.19589C17.4812 6.00449 17.7557 5.9472 17.9947 6.05136C18.2333 6.15422 18.389 6.39771 18.389 6.66723V12.0005C18.389 12.1776 18.3216 12.3468 18.2018 12.4718C18.082 12.5968 17.9195 12.6671 17.7501 12.6671ZM14.1812 11.3332L17.1112 11.3338V8.27658L14.1812 11.3332Z" fill="black"/>
<path d="M30.528 17.3337H16.4723C16.1195 17.3337 15.8334 17.0355 15.8334 16.6671C15.8334 16.2986 16.1195 16.0004 16.4723 16.0004H30.528C30.8809 16.0004 31.1669 16.2986 31.1669 16.6671C31.1669 17.0355 30.8809 17.3337 30.528 17.3337Z" fill="black"/>
<path d="M30.528 12.6671H21.5835C21.2306 12.6671 20.9446 12.369 20.9446 12.0005C20.9446 11.632 21.2306 11.3338 21.5835 11.3338H30.528C30.8809 11.3338 31.1669 11.632 31.1669 12.0005C31.1669 12.369 30.8809 12.6671 30.528 12.6671Z" fill="black"/>
<path d="M19.0279 34.6667H16.4723C16.1195 34.6667 15.8334 34.3686 15.8334 34.0001V26.0002C15.8334 25.6317 16.1195 25.3336 16.4723 25.3336H19.0279C19.3807 25.3336 19.6668 25.6317 19.6668 26.0002V34.0001C19.6668 34.3686 19.3807 34.6667 19.0279 34.6667ZM17.1112 33.3334H18.389V26.6669H17.1112V33.3334Z" fill="black"/>
<path d="M24.778 34.6667H22.2224C21.8695 34.6667 21.5835 34.3686 21.5835 34.0001V23.3336C21.5835 22.9651 21.8695 22.6669 22.2224 22.6669H24.778C25.1308 22.6669 25.4168 22.9651 25.4168 23.3336V34.0001C25.4168 34.3686 25.1308 34.6667 24.778 34.6667ZM22.8613 33.3334H24.1391V24.0003H22.8613V33.3334Z" fill="black"/>
<path d="M30.528 34.6667H27.9724C27.6196 34.6667 27.3335 34.3686 27.3335 34.0001V20.667C27.3335 20.2985 27.6196 20.0003 27.9724 20.0003H30.528C30.8809 20.0003 31.1669 20.2985 31.1669 20.667V34.0001C31.1669 34.3686 30.8809 34.6667 30.528 34.6667ZM28.6113 33.3334H29.8891V21.3336H28.6113V33.3334Z" fill="black"/>
</svg>
