<svg width="39" height="39" viewBox="0 0 39 39" fill="none" xmlns="http://www.w3.org/2000/svg">
<circle cx="16.5" cy="16.5" r="16.5" fill="#0066FF"/>
<path d="M11.789 11.789L11.789 11.789C14.5539 9.02382 19.0439 9.02382 21.8091 11.789C24.5739 14.5539 24.5739 19.0439 21.8091 21.8091C19.0439 24.5739 14.5539 24.5739 11.789 21.8091C9.02382 19.0439 9.02382 14.5539 11.789 11.789ZM9.12611 24.4717C12.8595 28.2053 18.6459 28.6471 22.8653 25.7977L24.9753 27.9078C24.8814 28.4421 25.0406 29.0125 25.4534 29.4253L33.5741 37.5458C34.2464 38.2181 35.3366 38.2181 36.0089 37.5458L37.5458 36.0089C38.2181 35.3366 38.2181 34.2464 37.5458 33.5741L29.4253 25.4534C29.0125 25.0406 28.4421 24.8814 27.9078 24.9753L25.7977 22.8653C28.6471 18.6459 28.2053 12.8595 24.4717 9.12611C20.2371 4.89129 13.3609 4.8913 9.12611 9.12611C4.8913 13.3609 4.89129 20.2371 9.12611 24.4717ZM28.5744 26.3045L36.6949 34.425C36.8973 34.6274 36.8973 34.9556 36.6949 35.1581L35.1581 36.6949C34.9556 36.8973 34.6274 36.8973 34.425 36.6949L26.3045 28.5744C26.1021 28.372 26.1021 28.0437 26.3045 27.8413L27.8413 26.3045C28.0437 26.1021 28.372 26.1021 28.5744 26.3045ZM9.97701 9.97701C13.7422 6.21186 19.8556 6.21186 23.6208 9.97701C27.3859 13.7422 27.3859 19.8556 23.6208 23.6208C19.8556 27.3859 13.7422 27.3859 9.97701 23.6208C6.21186 19.8556 6.21186 13.7422 9.97701 9.97701ZM10.9378 10.9378C7.70299 14.1726 7.70299 19.4251 10.9378 22.66C14.1726 25.8948 19.4251 25.8948 22.66 22.66C25.8948 19.4251 25.8948 14.1726 22.66 10.9378C19.4251 7.70299 14.1726 7.70299 10.9378 10.9378Z" fill="black" stroke="black" stroke-width="0.1"/>
</svg>
